{"glyphs":{"0":{"ha":792,"x_min":0,"x_max":0,"o":"m 396 939 b 722 475 639 939 722 717 b 396 -11 722 138 603 -11 b 69 475 146 -11 69 231 b 396 939 69 796 186 939 m 396 840 b 188 475 211 840 188 636 b 394 88 188 333 201 88 b 604 475 586 88 604 308 b 396 840 604 614 585 840 "},"1":{"ha":792,"x_min":0,"x_max":0,"o":"m 374 0 l 374 790 l 378 813 l 374 813 l 167 725 l 167 836 l 404 925 l 503 925 l 492 829 l 492 0 "},"2":{"ha":792,"x_min":0,"x_max":0,"o":"m 86 729 b 397 939 131 836 232 939 b 678 679 582 939 678 813 b 543 425 678 572 615 499 l 225 101 l 683 101 l 683 0 l 97 0 l 97 108 l 460 489 b 560 676 519 551 560 613 b 383 840 560 760 490 840 b 183 694 308 840 239 800 "},"3":{"ha":792,"x_min":0,"x_max":0,"o":"m 82 774 b 379 939 129 844 219 939 b 650 714 531 939 650 854 b 519 522 650 610 585 546 l 519 513 b 683 296 607 496 683 417 b 196 -33 683 85 450 -33 b 114 -26 157 -33 136 -31 l 107 78 b 197 74 129 76 157 74 b 565 301 442 74 565 179 b 414 440 565 401 483 440 b 265 415 400 440 376 439 l 247 511 l 350 529 b 531 701 433 544 531 603 b 368 840 531 779 469 840 b 172 728 292 840 251 807 "},"4":{"ha":792,"x_min":0,"x_max":0,"o":"m 592 925 l 592 301 l 754 301 l 754 206 l 592 206 l 592 0 l 474 0 l 474 206 l 46 206 l 46 333 l 476 925 m 135 301 l 474 301 l 474 643 l 483 767 l 476 768 "},"5":{"ha":792,"x_min":0,"x_max":0,"o":"m 671 925 l 671 824 l 258 824 l 238 543 b 435 613 310 592 358 613 b 699 335 619 613 699 489 b 215 -33 699 71 468 -33 b 132 -26 174 -33 154 -31 l 125 78 b 217 74 147 76 175 74 b 581 333 460 74 581 167 b 404 510 581 410 556 510 b 193 429 354 510 279 499 l 129 456 l 161 925 "},"6":{"ha":792,"x_min":0,"x_max":0,"o":"m 399 -11 b 200 57 322 -11 253 10 b 88 385 131 118 88 225 b 246 850 88 529 124 728 b 538 961 314 917 408 961 b 621 954 579 961 599 958 l 628 850 b 539 854 606 851 578 854 b 206 476 346 854 243 722 b 433 590 260 550 338 590 b 714 297 588 590 714 486 b 399 -11 714 94 569 -11 m 410 88 b 594 292 517 88 594 157 b 403 488 594 421 522 488 b 228 401 321 488 260 457 b 204 304 213 375 204 342 b 410 88 204 193 276 88 "},"7":{"ha":792,"x_min":0,"x_max":0,"o":"m 717 925 l 717 831 b 338 0 650 760 400 504 l 206 0 b 589 824 251 390 490 724 l 104 824 l 104 925 "},"8":{"ha":792,"x_min":0,"x_max":0,"o":"m 247 490 b 103 693 192 501 103 586 b 396 939 103 818 210 939 b 689 693 582 939 689 818 b 544 490 689 586 600 501 l 544 485 b 717 265 625 474 717 381 b 396 -11 717 72 569 -11 b 75 265 222 -11 75 72 b 247 485 75 381 167 474 m 219 686 b 397 532 219 600 279 532 b 574 686 514 532 574 600 b 396 840 574 767 514 840 b 219 686 279 840 219 767 m 199 267 b 397 88 199 167 244 88 b 594 267 549 88 594 167 b 396 436 594 364 547 436 b 199 267 244 436 199 364 "},"9":{"ha":792,"x_min":0,"x_max":0,"o":"m 392 939 b 590 871 468 939 538 918 b 703 543 660 810 703 703 b 544 78 703 399 667 200 b 253 -33 476 11 382 -33 b 169 -26 211 -33 192 -31 l 163 78 b 251 74 185 76 213 74 b 585 451 444 74 547 206 b 357 338 531 378 453 338 b 76 631 203 338 76 442 b 392 939 76 833 221 939 m 381 840 b 196 636 274 840 196 771 b 388 440 196 507 268 440 b 563 526 469 440 531 471 b 586 624 578 553 586 586 b 381 840 586 735 514 840 "}," ":{"ha":318,"x_min":0,"x_max":0,"o":""},"A":{"ha":875,"x_min":0,"x_max":0,"o":"m 506 981 l 822 0 l 697 0 l 626 232 l 236 232 l 164 0 l 50 0 l 374 981 m 406 768 l 268 331 l 597 331 l 460 768 l 440 854 l 426 854 "},"B":{"ha":907,"x_min":0,"x_max":0,"o":"m 456 981 b 785 753 613 981 785 924 b 619 536 785 646 735 564 l 619 526 b 835 283 725 513 835 432 b 469 0 835 56 679 0 l 139 0 l 139 981 m 257 564 l 413 564 b 656 735 583 564 656 622 b 440 882 656 817 592 882 l 257 882 m 257 99 l 508 99 b 710 288 650 99 710 171 b 453 467 710 394 624 467 l 257 467 "},"C":{"ha":911,"x_min":0,"x_max":0,"o":"m 525 -14 b 79 486 238 -14 79 194 b 533 996 79 764 240 996 b 825 924 663 996 760 965 l 797 817 b 529 897 728 860 653 897 b 201 492 299 897 201 711 b 529 85 201 299 285 85 b 799 164 653 85 729 119 l 825 58 b 525 -14 760 17 658 -14 "},"D":{"ha":1010,"x_min":0,"x_max":0,"o":"m 439 981 b 922 497 710 981 922 843 b 439 0 922 132 708 0 l 139 0 l 139 981 m 257 99 l 451 99 b 799 497 703 99 799 285 b 451 882 799 686 708 882 l 257 882 "},"E":{"ha":886,"x_min":0,"x_max":0,"o":"m 778 981 l 778 882 l 257 882 l 257 560 l 715 560 l 715 461 l 257 461 l 257 99 l 792 99 l 792 0 l 139 0 l 139 981 "},"F":{"ha":797,"x_min":0,"x_max":0,"o":"m 744 981 l 744 882 l 257 882 l 257 560 l 683 560 l 683 461 l 257 461 l 257 0 l 139 0 l 139 981 "},"G":{"ha":982,"x_min":0,"x_max":0,"o":"m 560 996 b 851 938 667 996 785 975 l 824 831 b 554 897 753 868 658 897 b 201 493 324 897 201 729 b 553 85 201 271 310 85 b 765 122 621 85 688 86 l 765 403 l 533 403 l 533 500 l 871 500 l 871 61 b 547 -14 803 15 651 -14 b 79 488 225 -14 79 226 b 560 996 79 774 257 996 "},"H":{"ha":981,"x_min":0,"x_max":0,"o":"m 257 981 l 257 546 l 724 546 l 724 981 l 842 981 l 842 0 l 724 0 l 724 449 l 257 449 l 257 0 l 139 0 l 139 981 "},"I":{"ha":396,"x_min":0,"x_max":0,"o":"m 257 981 l 257 0 l 139 0 l 139 981 "},"J":{"ha":660,"x_min":0,"x_max":0,"o":"m 533 981 l 533 242 b 274 -14 533 94 449 -14 b 51 57 192 -14 106 17 l 79 165 b 269 85 133 121 203 85 b 418 263 389 85 418 169 l 418 981 "},"K":{"ha":936,"x_min":0,"x_max":0,"o":"m 257 981 l 257 475 l 735 981 l 879 981 l 511 599 l 933 0 l 785 0 l 431 515 l 257 343 l 257 0 l 139 0 l 139 981 "},"L":{"ha":719,"x_min":0,"x_max":0,"o":"m 257 981 l 257 99 l 708 99 l 708 0 l 139 0 l 139 981 "},"M":{"ha":1240,"x_min":0,"x_max":0,"o":"m 344 981 l 621 169 l 629 169 l 907 981 l 1101 981 l 1101 0 l 986 0 l 986 676 l 993 881 l 979 881 l 672 0 l 568 0 l 261 881 l 247 881 l 254 676 l 254 0 l 139 0 l 139 981 "},"N":{"ha":997,"x_min":0,"x_max":0,"o":"m 139 981 l 303 981 l 661 306 l 747 108 l 761 108 l 746 329 l 746 981 l 858 981 l 858 0 l 700 0 l 336 676 l 250 872 l 236 872 l 251 651 l 251 0 l 139 0 "},"O":{"ha":1046,"x_min":0,"x_max":0,"o":"m 522 996 b 967 492 772 996 967 829 b 522 -14 967 161 768 -14 b 79 492 264 -14 79 157 b 522 996 79 828 274 996 m 522 897 b 201 492 303 897 201 728 b 522 85 201 275 300 85 b 844 492 749 85 844 251 b 522 897 844 710 749 897 "},"P":{"ha":867,"x_min":0,"x_max":0,"o":"m 482 981 b 743 894 613 981 693 949 b 813 696 790 844 813 775 b 733 482 813 608 786 533 b 482 406 683 433 614 406 l 257 406 l 257 0 l 139 0 l 139 981 m 257 504 l 497 504 b 643 551 564 504 613 521 b 692 696 678 585 692 633 b 650 826 692 747 679 793 b 497 882 619 861 571 882 l 257 882 "},"Q":{"ha":1046,"x_min":0,"x_max":0,"o":"m 522 996 b 967 492 772 996 967 829 b 808 88 967 307 904 172 l 936 -68 l 825 -93 l 722 31 b 522 -14 663 1 594 -14 b 79 492 264 -14 79 157 b 522 996 79 828 274 996 m 558 393 l 743 168 b 844 492 813 239 844 353 b 522 897 844 710 749 897 b 201 492 303 897 201 728 b 522 85 201 275 300 85 b 657 110 574 85 618 93 l 475 332 "},"R":{"ha":924,"x_min":0,"x_max":0,"o":"m 511 981 b 756 897 632 981 706 949 b 826 707 803 849 826 782 b 621 439 826 576 772 475 l 890 0 l 754 0 l 500 421 l 257 421 l 257 0 l 139 0 l 139 981 m 257 518 l 513 518 b 707 707 654 518 707 588 b 513 882 707 801 654 882 l 257 882 "},"S":{"ha":765,"x_min":0,"x_max":0,"o":"m 639 847 b 407 899 576 876 490 899 b 196 739 300 899 196 861 b 408 553 196 615 304 583 b 708 261 572 504 708 433 b 342 -21 708 89 572 -21 b 64 33 251 -21 142 -4 l 93 140 b 353 78 169 100 268 78 b 588 243 469 78 588 118 b 364 442 588 378 449 418 b 78 728 249 474 78 525 b 413 996 78 913 218 996 b 665 950 514 996 596 974 "},"T":{"ha":774,"x_min":0,"x_max":0,"o":"m 742 981 l 742 882 l 447 882 l 447 0 l 326 0 l 326 882 l 32 882 l 32 981 "},"U":{"ha":950,"x_min":0,"x_max":0,"o":"m 242 981 l 242 338 b 475 85 242 203 249 85 b 708 338 700 85 708 203 l 708 981 l 826 981 l 826 324 b 476 -14 826 163 789 -14 b 124 324 164 -14 124 163 l 124 981 "},"V":{"ha":838,"x_min":0,"x_max":0,"o":"m 168 981 l 396 221 l 415 135 l 429 135 l 450 221 l 676 981 l 807 981 l 483 0 l 353 0 l 35 981 "},"W":{"ha":1319,"x_min":0,"x_max":0,"o":"m 189 981 l 356 214 l 372 114 l 386 114 l 403 214 l 582 981 l 738 981 l 917 214 l 935 114 l 949 114 l 964 214 l 1131 981 l 1260 981 l 1017 0 l 860 0 l 681 767 l 664 867 l 650 867 l 633 767 l 458 0 l 303 0 l 61 981 "},"X":{"ha":867,"x_min":0,"x_max":0,"o":"m 196 981 l 435 588 l 686 981 l 821 981 l 503 511 l 828 0 l 674 0 l 429 432 l 174 0 l 38 0 l 358 511 l 44 981 "},"Y":{"ha":867,"x_min":0,"x_max":0,"o":"m 161 981 l 440 461 l 721 981 l 853 981 l 492 353 l 492 0 l 374 0 l 374 353 l 17 981 "},"Z":{"ha":854,"x_min":0,"x_max":0,"o":"m 782 981 l 782 896 l 213 99 l 789 99 l 789 0 l 65 0 l 65 85 l 632 882 l 115 882 l 115 981 "},"a":{"ha":733,"x_min":0,"x_max":0,"o":"m 103 660 b 367 725 144 688 244 725 b 621 471 529 725 621 658 l 621 186 b 660 0 621 90 643 31 l 549 0 b 519 110 540 18 522 58 b 288 -11 471 35 392 -11 b 65 190 156 -11 65 61 b 510 425 65 331 172 422 l 510 483 b 364 629 510 581 472 629 b 144 575 286 629 210 604 m 510 354 b 179 200 207 339 179 265 b 310 79 179 124 218 79 b 510 269 428 79 510 151 l 510 354 "},"b":{"ha":797,"x_min":0,"x_max":0,"o":"m 236 1022 l 236 607 b 436 725 282 685 342 725 b 724 360 638 725 724 560 b 447 -11 724 200 669 -11 b 229 101 367 -11 290 10 l 215 0 l 125 0 l 125 1022 m 236 256 b 421 85 236 179 290 85 b 608 358 581 85 608 228 b 422 629 608 489 581 629 b 236 457 290 629 236 532 "},"c":{"ha":676,"x_min":0,"x_max":0,"o":"m 401 85 b 572 140 467 85 524 106 l 603 44 b 394 -11 549 10 483 -11 b 74 350 175 -11 74 142 b 397 725 74 569 185 725 b 603 669 482 725 549 704 l 572 574 b 399 629 524 607 468 629 b 189 353 253 629 189 514 b 401 85 189 224 228 85 "},"d":{"ha":797,"x_min":0,"x_max":0,"o":"m 672 1022 l 672 0 l 582 0 l 568 108 b 350 -11 507 17 431 -11 b 74 360 128 -11 74 200 b 361 725 74 560 160 725 b 561 614 456 725 515 692 l 561 1022 m 561 457 b 375 629 561 532 507 629 b 189 358 217 629 189 489 b 376 85 189 228 217 85 b 561 256 507 85 561 179 "},"e":{"ha":750,"x_min":0,"x_max":0,"o":"m 189 336 b 410 85 192 213 238 85 b 614 160 489 85 549 113 l 658 72 b 410 -11 590 19 513 -11 b 74 346 178 -11 74 143 b 393 725 74 565 194 725 b 675 407 576 725 675 590 b 671 336 675 385 674 368 m 389 633 b 193 422 285 633 211 556 l 563 422 b 389 633 563 542 501 633 "},"f":{"ha":406,"x_min":0,"x_max":0,"o":"m 131 714 l 131 844 b 311 1036 131 953 196 1036 b 410 1021 368 1036 397 1029 l 394 933 b 324 942 376 938 349 942 b 242 850 263 942 242 917 l 242 714 l 408 714 l 408 628 l 242 628 l 242 0 l 131 0 l 131 628 l 13 628 l 13 714 "},"g":{"ha":797,"x_min":0,"x_max":0,"o":"m 672 714 l 672 -21 b 382 -317 672 -194 586 -317 b 132 -258 290 -317 206 -297 l 163 -161 b 383 -221 215 -193 278 -221 b 561 -8 481 -221 561 -186 l 561 101 b 351 -11 513 21 436 -11 b 74 363 133 -11 74 199 b 367 725 74 558 158 725 b 568 607 457 725 513 693 l 582 714 m 561 457 b 375 629 561 533 507 629 b 189 357 217 629 189 488 b 376 85 189 225 218 85 b 561 256 507 85 561 179 "},"h":{"ha":789,"x_min":0,"x_max":0,"o":"m 236 1022 l 236 599 b 443 725 289 701 356 725 b 614 657 517 725 574 699 b 676 463 654 614 676 554 l 676 0 l 565 0 l 565 482 b 528 588 565 518 556 558 b 413 629 504 613 468 629 b 236 454 301 629 236 549 l 236 0 l 125 0 l 125 1022 "},"i":{"ha":361,"x_min":0,"x_max":0,"o":"m 236 714 l 236 0 l 125 0 l 125 714 m 244 1022 l 244 896 l 117 896 l 117 1022 "},"j":{"ha":361,"x_min":0,"x_max":0,"o":"m 244 1022 l 244 896 l 117 896 l 117 1022 m 125 714 l 236 714 l 236 -117 b 56 -308 236 -225 171 -308 b -1 -306 32 -308 14 -307 l 7 -211 b 43 -214 19 -212 31 -214 b 125 -122 104 -214 125 -189 "},"k":{"ha":719,"x_min":0,"x_max":0,"o":"m 236 1022 l 236 383 l 557 714 l 699 714 l 408 438 l 710 0 l 568 0 l 332 363 l 236 275 l 236 0 l 125 0 l 125 1022 "},"l":{"ha":361,"x_min":0,"x_max":0,"o":"m 236 1022 l 236 0 l 125 0 l 125 1022 "},"m":{"ha":1189,"x_min":0,"x_max":0,"o":"m 215 714 l 229 589 b 435 725 281 697 360 725 b 646 600 521 725 607 700 b 850 725 700 699 769 725 b 1017 661 922 725 976 703 b 1078 463 1054 621 1078 564 l 1078 0 l 965 0 l 965 482 b 826 629 965 549 939 629 b 657 454 724 629 657 549 l 657 0 l 544 0 l 544 482 b 406 629 544 549 518 629 b 236 454 303 629 236 549 l 236 0 l 125 0 l 125 589 l 111 714 "},"n":{"ha":789,"x_min":0,"x_max":0,"o":"m 215 714 l 229 589 b 443 725 282 696 356 725 b 614 657 517 725 574 699 b 676 463 654 614 676 554 l 676 0 l 565 0 l 565 482 b 529 588 565 518 557 558 b 413 629 506 613 468 629 b 236 454 301 629 236 549 l 236 0 l 125 0 l 125 589 l 111 714 "},"o":{"ha":775,"x_min":0,"x_max":0,"o":"m 388 629 b 189 358 242 629 189 508 b 388 85 189 221 236 85 b 586 358 533 85 586 208 b 388 629 586 496 539 629 m 389 725 b 701 358 583 725 701 574 b 389 -11 701 158 590 -11 b 74 358 193 -11 74 138 b 389 725 74 563 188 725 "},"p":{"ha":797,"x_min":0,"x_max":0,"o":"m 215 714 l 229 600 b 436 725 285 686 339 725 b 724 363 638 725 724 558 b 447 -11 724 200 664 -11 b 236 94 361 -11 285 14 l 236 -306 l 125 -306 l 125 589 l 111 714 m 236 256 b 411 85 236 175 300 85 b 608 354 579 85 608 217 b 422 629 608 489 581 629 b 236 457 290 629 236 533 "},"q":{"ha":797,"x_min":0,"x_max":0,"o":"m 672 714 l 672 -306 l 561 -306 l 561 101 b 350 -11 513 21 436 -11 b 74 363 133 -11 74 200 b 361 725 74 558 160 725 b 568 607 458 725 513 693 l 582 714 m 561 457 b 375 629 561 533 507 629 b 189 354 217 629 189 489 b 386 85 189 217 218 85 b 561 256 497 85 561 175 "},"r":{"ha":490,"x_min":0,"x_max":0,"o":"m 215 714 l 229 589 b 400 718 271 661 321 718 b 475 708 421 718 446 715 l 461 590 b 389 599 428 597 408 599 b 236 449 293 599 236 544 l 236 0 l 125 0 l 125 590 l 111 714 "},"s":{"ha":622,"x_min":0,"x_max":0,"o":"m 508 594 b 322 636 450 617 393 636 b 185 538 247 636 185 608 b 367 404 185 458 256 435 b 557 197 451 381 557 331 b 279 -21 557 46 424 -21 b 69 22 186 -21 94 7 l 92 117 b 278 69 136 93 199 69 b 447 181 361 69 447 96 b 261 325 447 264 368 292 b 79 526 178 353 79 411 b 329 725 79 656 183 725 b 532 688 401 725 481 711 "},"t":{"ha":461,"x_min":0,"x_max":0,"o":"m 250 904 l 250 714 l 419 714 l 419 628 l 250 628 l 250 169 b 319 89 250 125 267 89 l 426 89 l 419 3 b 303 -11 393 -8 367 -11 b 139 151 196 -11 139 64 l 139 628 l 22 628 l 22 714 l 139 714 l 153 904 "},"u":{"ha":789,"x_min":0,"x_max":0,"o":"m 572 0 l 558 125 b 344 -11 506 18 432 -11 b 174 57 271 -11 214 15 b 111 251 133 100 111 160 l 111 714 l 222 714 l 222 232 b 258 126 222 196 231 156 b 375 85 282 101 319 85 b 551 260 486 85 551 165 l 551 714 l 663 714 l 663 125 l 676 0 "},"v":{"ha":653,"x_min":0,"x_max":0,"o":"m 136 714 l 310 196 l 325 133 l 332 133 l 349 196 l 525 714 l 646 714 l 382 0 l 269 0 l 8 714 "},"w":{"ha":1004,"x_min":0,"x_max":0,"o":"m 149 714 l 268 239 l 282 165 l 289 165 l 307 239 l 446 714 l 561 714 l 701 239 l 718 165 l 725 165 l 740 239 l 858 714 l 981 714 l 779 0 l 672 0 l 522 497 l 507 571 l 500 571 l 485 497 l 335 0 l 228 0 l 26 714 "},"x":{"ha":656,"x_min":0,"x_max":0,"o":"m 169 714 l 326 440 l 492 714 l 614 714 l 393 369 l 628 0 l 492 0 l 324 290 l 149 0 l 22 0 l 261 365 l 36 714 "},"y":{"ha":654,"x_min":0,"x_max":0,"o":"m 129 714 l 315 193 l 331 131 l 338 131 l 354 193 l 522 714 l 646 714 l 347 -103 b 160 -308 310 -207 256 -308 b 93 -299 131 -308 106 -306 l 83 -212 b 238 -122 179 -212 210 -200 l 278 -11 l 4 714 "},"z":{"ha":615,"x_min":0,"x_max":0,"o":"m 558 714 l 558 644 l 182 86 l 569 86 l 569 0 l 51 0 l 51 69 l 428 628 l 85 628 l 85 714 "},"&":{"ha":949,"x_min":0,"x_max":0,"o":"m 888 -12 b 649 119 786 -1 718 43 b 349 -15 572 39 483 -15 b 49 250 168 -15 49 83 b 279 556 49 403 150 499 b 174 772 229 610 174 676 b 422 996 174 904 278 996 b 664 788 556 996 664 917 b 442 538 664 664 565 586 b 651 283 507 464 556 403 b 789 526 699 356 753 446 l 906 501 b 718 207 858 417 796 307 b 906 86 778 135 836 104 m 364 79 b 583 190 454 79 519 121 b 336 488 503 289 424 388 b 171 260 231 447 171 358 b 364 79 171 147 249 79 m 557 776 b 421 910 557 856 497 910 b 288 783 343 910 288 856 b 388 593 288 729 318 675 b 557 776 490 644 557 693 "},".":{"ha":301,"x_min":0,"x_max":0,"o":"m 225 149 l 225 0 l 76 0 l 76 149 "},",":{"ha":301,"x_min":0,"x_max":0,"o":"m 269 149 l 122 -186 l 29 -186 l 121 149 "},":":{"ha":385,"x_min":0,"x_max":0,"o":"m 267 714 l 267 565 l 118 565 l 118 714 m 267 149 l 267 0 l 118 0 l 118 149 "},";":{"ha":385,"x_min":0,"x_max":0,"o":"m 306 149 l 158 -186 l 65 -186 l 157 149 m 267 714 l 267 565 l 118 565 l 118 714 "},"!":{"ha":418,"x_min":0,"x_max":0,"o":"m 290 981 l 290 832 l 263 322 l 188 322 l 158 832 l 158 981 m 300 149 l 300 0 l 151 0 l 151 149 "},"?":{"ha":618,"x_min":0,"x_max":0,"o":"m 71 871 b 326 992 119 938 218 992 b 568 782 458 992 568 917 b 432 539 568 679 515 619 b 317 322 361 467 317 431 l 214 322 b 346 590 214 450 242 481 b 463 767 419 658 463 699 b 319 896 463 867 382 896 b 135 813 260 896 194 874 l 71 871 m 197 149 l 346 149 l 346 0 l 197 0 "},"¡":{"ha":418,"x_min":0,"x_max":0,"o":"m 231 658 l 260 149 l 260 0 l 128 0 l 128 149 l 156 658 m 267 981 l 267 832 l 118 832 l 118 981 "},"¿":{"ha":618,"x_min":0,"x_max":0,"o":"m 553 110 b 297 -11 504 43 406 -11 b 56 199 165 -11 56 64 b 192 442 56 301 108 361 b 307 658 263 514 307 550 l 410 658 b 278 390 410 531 382 500 b 161 214 204 322 161 282 b 304 85 161 114 242 85 b 489 168 364 85 429 107 m 278 981 l 426 981 l 426 832 l 278 832 "},"'":{"ha":274,"x_min":0,"x_max":0,"o":"m 90 868 l 97 981 l 240 981 l 211 868 l 153 647 l 78 647 "},"\"":{"ha":488,"x_min":0,"x_max":0,"o":"m 90 868 l 97 981 l 240 981 l 211 868 l 153 647 l 78 647 m 303 868 l 310 981 l 453 981 l 424 868 l 365 647 l 290 647 "},"‘":{"ha":301,"x_min":0,"x_max":0,"o":"m 268 981 l 176 647 l 33 647 l 168 981 "},"’":{"ha":301,"x_min":0,"x_max":0,"o":"m 268 981 l 133 647 l 33 647 l 125 981 "},"“":{"ha":557,"x_min":0,"x_max":0,"o":"m 268 981 l 176 647 l 33 647 l 168 981 m 524 981 l 432 647 l 289 647 l 424 981 "},"”":{"ha":557,"x_min":0,"x_max":0,"o":"m 268 981 l 133 647 l 33 647 l 125 981 m 524 981 l 389 647 l 289 647 l 381 981 "},"‚":{"ha":301,"x_min":0,"x_max":0,"o":"m 268 149 l 133 -185 l 33 -185 l 125 149 "},"„":{"ha":557,"x_min":0,"x_max":0,"o":"m 268 149 l 133 -185 l 33 -185 l 125 149 m 524 149 l 389 -185 l 289 -185 l 381 149 "},"‹":{"ha":414,"x_min":0,"x_max":0,"o":"m 324 601 l 147 392 l 324 182 l 206 182 l 60 346 l 60 439 l 206 601 "},"›":{"ha":414,"x_min":0,"x_max":0,"o":"m 208 601 l 354 439 l 354 346 l 208 182 l 90 182 l 267 392 l 90 601 "},"«":{"ha":681,"x_min":0,"x_max":0,"o":"m 324 601 l 147 392 l 324 182 l 206 182 l 60 346 l 60 439 l 206 601 m 590 601 l 414 392 l 590 182 l 472 182 l 326 346 l 326 439 l 472 601 "},"»":{"ha":681,"x_min":0,"x_max":0,"o":"m 475 601 l 621 439 l 621 346 l 475 182 l 357 182 l 533 392 l 357 601 m 208 601 l 354 439 l 354 346 l 208 182 l 90 182 l 267 392 l 90 601 "},"-":{"ha":426,"x_min":0,"x_max":0,"o":"m 363 442 l 363 335 l 64 335 l 64 442 "},"–":{"ha":792,"x_min":0,"x_max":0,"o":"m 736 431 l 736 344 l 56 344 l 56 431 "},"—":{"ha":1389,"x_min":0,"x_max":0,"o":"m 1333 431 l 1333 344 l 56 344 l 56 431 "},"_":{"ha":792,"x_min":0,"x_max":0,"o":"m 799 -219 l 799 -306 l -7 -306 l -7 -219 "},"…":{"ha":1389,"x_min":0,"x_max":0,"o":"m 1188 149 l 1188 0 l 1039 0 l 1039 149 m 768 149 l 768 0 l 619 0 l 619 149 m 349 149 l 349 0 l 200 0 l 200 149 "},"(":{"ha":497,"x_min":0,"x_max":0,"o":"m 85 413 b 365 1042 85 711 242 950 l 461 1042 l 461 1022 b 199 413 319 914 199 665 b 461 -201 199 160 319 -93 l 461 -221 l 365 -221 b 85 413 242 -129 85 114 "},")":{"ha":497,"x_min":0,"x_max":0,"o":"m 413 413 b 132 -221 413 114 256 -129 l 36 -221 l 36 -201 b 299 413 178 -93 299 160 b 36 1022 299 665 178 914 l 36 1042 l 132 1042 b 413 413 256 950 413 711 "},"[":{"ha":506,"x_min":0,"x_max":0,"o":"m 421 1042 l 421 958 l 208 958 l 208 -137 l 421 -137 l 421 -221 l 106 -221 l 106 1042 "},"]":{"ha":506,"x_min":0,"x_max":0,"o":"m 400 1042 l 400 -221 l 85 -221 l 85 -137 l 297 -137 l 297 958 l 85 958 l 85 1042 "},"{":{"ha":574,"x_min":0,"x_max":0,"o":"m 504 1042 l 504 958 l 422 958 b 294 849 340 958 294 914 b 300 790 294 826 296 813 l 338 565 b 326 539 339 557 333 547 l 215 425 l 215 414 l 326 299 b 338 272 333 292 339 283 l 300 35 b 294 -32 296 8 294 -7 b 422 -137 294 -87 338 -137 l 504 -137 l 504 -221 l 393 -221 b 246 -161 344 -221 286 -200 b 188 -36 210 -128 188 -82 b 189 -11 188 -28 188 -19 l 222 214 b 228 258 226 246 228 253 b 139 368 228 313 193 368 l 53 368 l 53 471 l 139 471 b 228 581 193 471 229 526 b 222 625 228 586 228 592 l 189 832 b 188 858 188 840 188 850 b 242 979 188 903 208 947 b 393 1042 283 1019 343 1042 "},"}":{"ha":574,"x_min":0,"x_max":0,"o":"m 181 1042 b 332 979 231 1042 290 1019 b 386 858 365 947 386 903 b 385 832 386 850 386 840 l 351 625 b 346 581 346 592 346 586 b 435 471 344 526 381 471 l 521 471 l 521 368 l 435 368 b 346 258 381 368 346 313 b 351 214 346 253 347 246 l 385 -11 b 386 -36 386 -19 386 -28 b 328 -161 386 -82 364 -128 b 181 -221 288 -200 229 -221 l 69 -221 l 69 -137 l 151 -137 b 279 -32 236 -137 279 -87 b 274 35 279 -7 278 8 l 236 272 b 247 299 235 283 240 292 l 358 414 l 358 425 l 247 539 b 236 565 240 547 235 557 l 274 790 b 279 849 278 813 279 826 b 151 958 279 914 233 958 l 69 958 l 69 1042 "},"\\":{"ha":607,"x_min":0,"x_max":0,"o":"m 101 981 l 607 -160 l 508 -160 l 0 981 "},"/":{"ha":607,"x_min":0,"x_max":0,"o":"m 607 981 l 99 -160 l 0 -160 l 506 981 "},"*":{"ha":553,"x_min":0,"x_max":0,"o":"m 144 853 l 244 785 l 256 797 l 224 908 l 224 981 l 333 981 l 333 908 l 301 797 l 314 785 l 410 851 l 479 872 l 514 769 l 444 746 l 326 742 l 322 725 l 414 654 l 458 596 l 368 531 l 325 590 l 286 701 l 269 701 l 228 590 l 186 531 l 96 596 l 140 656 l 233 728 l 229 744 l 110 747 l 42 771 l 76 874 "},"•":{"ha":618,"x_min":0,"x_max":0,"o":"m 310 597 b 515 392 435 597 515 517 b 310 186 515 267 435 186 b 104 392 185 186 104 267 b 310 597 104 517 185 597 "},"@":{"ha":1457,"x_min":0,"x_max":0,"o":"m 1075 678 l 936 253 b 931 219 932 242 931 231 b 1021 135 931 165 965 135 b 1268 499 1135 135 1268 281 b 804 910 1268 732 1082 910 b 211 336 489 910 211 682 b 733 -182 211 -11 490 -182 b 1146 -93 883 -182 1064 -135 l 1175 -165 b 729 -268 1090 -211 899 -268 b 114 335 451 -268 114 -69 b 804 996 114 735 439 996 b 1357 503 1138 996 1357 778 b 997 50 1357 226 1164 50 b 844 182 908 50 844 96 b 600 51 774 97 686 51 b 399 296 497 51 399 126 b 753 706 399 531 600 706 b 935 560 851 706 919 636 l 974 678 m 628 146 b 839 261 692 146 767 183 l 903 460 b 753 608 890 538 833 608 b 507 308 651 608 507 492 b 628 146 507 199 560 146 "},"®":{"ha":728,"x_min":0,"x_max":0,"o":"m 354 360 b 31 678 172 360 31 499 b 354 996 31 850 172 996 b 682 678 539 996 682 850 b 354 360 682 499 539 360 m 224 526 l 224 847 l 403 847 b 517 749 468 847 517 806 b 447 658 517 710 488 674 l 524 526 l 451 526 l 381 653 l 286 653 l 286 526 m 286 794 l 286 706 l 401 706 b 454 749 429 706 454 726 b 403 794 454 776 429 794 m 354 408 b 632 678 510 408 632 528 b 354 947 632 824 510 947 b 82 678 201 947 82 824 b 354 408 82 528 201 408 "},"©":{"ha":1247,"x_min":0,"x_max":0,"o":"m 613 -97 b 43 464 300 -97 43 151 b 613 1022 43 775 300 1022 b 1181 464 925 1022 1181 775 b 613 -97 1181 151 925 -97 m 613 -12 b 1085 464 874 -12 1085 200 b 613 940 1085 724 874 940 b 139 464 354 940 139 724 b 613 -12 139 200 354 -12 m 801 624 b 622 665 747 651 686 665 b 426 465 504 665 426 575 b 625 282 426 354 517 282 b 807 319 710 282 761 299 l 844 233 b 625 188 790 207 729 188 b 318 465 457 188 318 297 b 621 760 318 629 436 760 b 839 707 699 760 778 738 "},"℗":{"ha":1247,"x_min":0,"x_max":0,"o":"m 1181 465 b 610 -97 1181 153 924 -97 b 43 465 299 -97 43 153 b 610 1022 43 775 299 1022 b 1181 465 924 1022 1181 775 m 1085 467 b 610 940 1085 728 869 940 b 139 467 351 940 139 726 b 610 -12 139 204 351 -12 b 1085 467 869 -12 1085 203 m 511 371 l 511 213 l 403 213 l 403 739 l 675 739 b 910 558 768 739 910 710 b 708 371 910 429 806 371 m 511 467 l 707 467 b 800 557 749 467 800 489 b 701 643 800 625 743 643 l 511 643 "},"™":{"ha":918,"x_min":0,"x_max":0,"o":"m 432 981 l 535 981 l 625 728 l 632 728 l 722 981 l 824 981 l 824 583 l 763 583 l 763 890 l 764 929 l 758 929 l 747 890 l 664 658 l 592 658 l 508 890 l 497 929 l 492 929 l 493 890 l 493 583 l 432 583 m 161 926 l 49 926 l 49 981 l 340 981 l 340 926 l 226 926 l 226 583 l 161 583 "},"¶":{"ha":997,"x_min":0,"x_max":0,"o":"m 856 981 l 856 -306 l 738 -306 l 738 883 l 524 883 l 524 -306 l 406 -306 l 406 426 l 349 426 b 186 483 269 426 226 447 b 93 714 133 533 94 614 b 167 913 93 800 124 867 b 349 981 210 957 269 981 "},"†":{"ha":608,"x_min":0,"x_max":0,"o":"m 360 981 l 360 908 l 331 785 l 340 776 l 447 803 l 521 803 l 521 693 l 449 693 l 340 724 l 331 711 l 360 267 l 360 193 l 250 193 l 250 267 l 278 713 l 269 724 l 160 693 l 88 693 l 88 803 l 160 803 l 269 776 l 279 785 l 250 908 l 250 981 "},"‡":{"ha":608,"x_min":0,"x_max":0,"o":"m 360 981 l 360 908 l 329 786 l 342 775 l 447 803 l 521 803 l 521 693 l 449 693 l 342 725 l 331 708 l 361 643 l 361 533 l 329 467 l 342 450 l 447 481 l 521 481 l 521 371 l 449 371 l 342 400 l 329 389 l 360 267 l 360 193 l 250 193 l 250 265 l 281 389 l 268 400 l 160 371 l 88 371 l 88 481 l 160 481 l 268 450 l 281 468 l 250 532 l 250 642 l 282 710 l 268 725 l 160 693 l 88 693 l 88 803 l 160 803 l 268 775 l 282 786 l 250 908 l 250 981 "},"ℓ":{"ha":792,"x_min":0,"x_max":0,"o":"m 339 447 b 497 750 454 528 497 606 b 417 900 497 871 467 900 b 339 764 374 900 339 879 m 228 365 l 228 751 b 424 996 228 939 322 996 b 607 760 526 996 607 938 b 339 335 607 589 532 457 l 339 167 b 436 85 339 108 367 85 b 589 129 513 85 564 114 l 589 40 b 408 -11 544 8 472 -11 b 228 163 299 -11 228 44 l 228 251 l 122 172 l 122 286 "},"℮":{"ha":1103,"x_min":0,"x_max":0,"o":"m 258 443 b 268 435 258 436 264 435 l 833 435 b 844 443 838 435 844 436 l 844 619 b 836 646 844 628 843 638 b 553 775 776 728 674 775 b 269 646 457 775 318 721 b 258 619 264 638 258 628 m 258 200 b 269 163 258 186 258 174 b 553 36 353 78 450 36 b 853 164 669 36 774 75 l 932 164 b 553 -11 835 43 692 -11 b 90 406 322 -11 89 160 b 553 822 90 660 325 822 b 1014 386 800 822 1014 651 l 268 386 b 258 375 264 386 258 381 "},"°":{"ha":525,"x_min":0,"x_max":0,"o":"m 263 943 b 465 714 411 943 465 839 b 263 471 465 561 396 471 b 60 713 110 471 60 593 b 263 943 60 864 129 943 m 263 865 b 151 714 165 865 151 783 b 263 549 151 658 160 549 b 374 713 363 549 374 642 b 263 865 374 776 363 865 "},"$":{"ha":792,"x_min":0,"x_max":0,"o":"m 625 743 b 394 794 563 772 475 794 b 224 678 307 794 224 763 b 408 538 224 590 311 564 b 694 304 565 496 694 456 b 442 61 694 176 603 85 l 442 -135 l 351 -135 l 351 56 b 92 110 265 56 164 72 l 121 217 b 368 154 193 175 286 154 b 574 281 469 154 574 186 b 364 428 574 371 478 399 b 106 663 263 453 106 493 b 351 889 106 797 204 875 l 351 1036 l 442 1036 l 442 890 b 651 846 522 886 592 865 "},"¢":{"ha":792,"x_min":0,"x_max":0,"o":"m 436 -11 b 393 -8 421 -11 407 -10 l 358 -224 l 268 -224 l 308 10 b 115 350 176 58 115 188 b 426 725 115 565 222 719 l 458 925 l 549 925 l 515 718 b 644 669 565 710 607 693 l 614 574 b 440 629 565 607 510 629 b 225 353 294 629 225 514 b 443 85 225 224 269 85 b 614 140 508 85 565 106 l 644 44 b 436 -11 590 10 525 -11 "},"€":{"ha":792,"x_min":0,"x_max":0,"o":"m 58 618 l 190 618 b 519 940 226 807 331 940 b 728 894 589 940 676 921 l 700 803 b 517 842 650 825 576 842 b 310 618 394 842 333 746 l 621 618 l 621 532 l 300 532 b 299 472 299 513 299 492 b 300 403 299 449 299 425 l 621 403 l 621 317 l 311 317 b 501 85 333 188 390 85 b 701 122 590 85 650 101 l 728 31 b 500 -14 674 4 575 -14 b 186 317 317 -14 215 119 l 58 317 l 58 403 l 178 403 b 176 454 176 419 176 436 b 179 532 176 481 178 506 l 58 532 "},"£":{"ha":792,"x_min":0,"x_max":0,"o":"m 343 432 b 378 285 363 386 378 338 b 332 139 378 235 365 185 b 513 96 386 117 433 96 b 704 140 571 96 614 107 l 704 44 b 510 -10 678 22 596 -10 b 278 64 431 -10 372 17 b 113 -6 232 14 176 -6 b 40 10 82 -6 56 -1 l 40 101 b 111 96 64 99 89 96 b 272 271 250 96 272 214 b 222 432 272 328 250 379 l 40 432 l 40 518 l 174 518 b 122 696 146 572 122 631 b 429 939 122 836 231 939 b 678 867 526 939 624 911 l 636 783 b 422 840 558 821 490 840 b 240 694 308 840 240 788 b 300 518 240 633 268 576 l 538 518 l 538 432 "},"¥":{"ha":792,"x_min":0,"x_max":0,"o":"m 197 925 l 403 454 l 607 925 l 735 925 l 583 618 l 746 618 l 746 532 l 539 532 l 481 403 l 746 403 l 746 317 l 456 317 l 456 0 l 338 0 l 338 317 l 46 317 l 46 403 l 310 403 l 251 532 l 46 532 l 46 618 l 208 618 l 58 925 "},"ƒ":{"ha":792,"x_min":0,"x_max":0,"o":"m 374 -114 b 160 -306 354 -222 275 -306 b 64 -290 103 -306 75 -299 l 94 -203 b 164 -211 113 -207 139 -211 b 263 -119 225 -211 251 -186 l 360 431 l 214 431 l 214 517 l 375 517 l 415 739 b 629 931 435 847 514 931 b 725 915 686 931 714 924 l 694 828 b 625 836 676 832 650 836 b 526 744 564 836 538 811 l 486 517 l 667 517 l 667 431 l 471 431 "},"§":{"ha":875,"x_min":0,"x_max":0,"o":"m 221 -83 b 428 -125 288 -106 356 -125 b 586 -25 522 -125 586 -97 b 363 119 586 61 501 85 b 83 392 238 153 83 213 b 243 610 83 504 151 576 b 185 746 207 643 185 688 b 443 939 185 863 279 939 b 665 901 514 939 606 925 l 642 808 b 435 850 575 831 507 850 b 290 750 349 850 290 822 b 514 606 290 664 375 640 b 793 333 639 572 793 513 b 633 115 793 219 725 147 b 692 -21 668 81 692 36 b 419 -214 692 -137 592 -214 b 197 -176 349 -214 257 -200 m 408 526 b 335 551 383 532 358 540 b 193 394 258 542 193 493 b 468 199 193 279 282 251 b 542 174 493 192 518 183 b 683 331 618 182 683 231 b 408 526 683 446 594 474 "},"#":{"ha":1096,"x_min":0,"x_max":0,"o":"m 729 207 l 682 -56 l 588 -56 l 635 207 l 368 207 l 321 -56 l 226 -56 l 274 207 l 69 207 l 69 303 l 292 303 l 354 646 l 140 646 l 140 742 l 371 742 l 415 981 l 507 981 l 464 742 l 732 742 l 776 981 l 868 981 l 825 742 l 1026 742 l 1026 646 l 808 646 l 746 303 l 958 303 l 958 207 m 385 303 l 653 303 l 715 646 l 447 646 "},"%":{"ha":1232,"x_min":0,"x_max":0,"o":"m 282 933 b 499 678 440 933 499 817 b 282 408 499 508 425 408 b 65 676 118 408 65 543 b 282 933 65 847 139 933 m 282 856 b 157 678 172 856 157 761 b 282 486 157 610 167 486 b 407 676 394 486 407 594 b 282 856 407 751 394 856 m 949 517 b 1165 261 1107 517 1165 400 b 949 -8 1165 92 1092 -8 b 732 260 785 -8 732 126 b 949 517 732 431 806 517 m 949 439 b 824 261 839 439 824 344 b 949 69 824 193 833 69 b 1074 260 1061 69 1074 178 b 949 439 1074 335 1061 439 m 835 925 l 926 925 l 400 0 l 308 0 "},"‰":{"ha":1743,"x_min":0,"x_max":0,"o":"m 282 933 b 499 678 440 933 499 817 b 282 408 499 508 425 408 b 65 676 118 408 65 543 b 282 933 65 847 139 933 m 282 856 b 157 678 172 856 157 761 b 282 486 157 610 167 486 b 407 676 394 486 407 594 b 282 856 407 751 394 856 m 949 517 b 1165 261 1107 517 1165 400 b 949 -8 1165 92 1092 -8 b 732 260 785 -8 732 126 b 949 517 732 431 806 517 m 949 439 b 824 261 839 439 824 344 b 949 69 824 193 833 69 b 1074 260 1061 69 1074 178 b 949 439 1074 335 1061 439 m 835 925 l 926 925 l 400 0 l 308 0 m 1461 517 b 1678 261 1619 517 1678 400 b 1461 -8 1678 92 1604 -8 b 1244 260 1297 -8 1244 126 b 1461 517 1244 431 1318 517 m 1461 439 b 1336 261 1351 439 1336 344 b 1461 69 1336 193 1346 69 b 1586 260 1574 69 1586 178 b 1461 439 1586 335 1574 439 "},"¤":{"ha":792,"x_min":0,"x_max":0,"o":"m 182 128 b 99 338 126 178 99 251 l 99 510 b 182 719 99 596 126 669 l 82 925 l 186 925 l 257 767 b 394 792 296 783 342 792 b 546 761 453 792 504 781 l 619 925 l 724 925 l 618 711 b 693 510 668 661 693 590 l 693 338 b 618 139 693 260 668 189 l 724 -78 l 619 -78 b 544 86 619 -78 546 86 b 394 56 503 67 453 56 b 257 81 342 56 296 64 l 186 -78 l 82 -78 m 394 151 b 583 364 538 151 583 257 l 583 483 b 394 696 583 615 538 696 b 208 483 251 696 208 615 l 208 364 b 394 151 208 232 251 151 "},"⁽":{"ha":311,"x_min":0,"x_max":0,"o":"m 51 604 b 231 989 51 789 154 933 l 296 989 l 296 974 b 138 604 210 910 138 758 b 296 228 138 443 210 292 l 296 213 l 231 213 b 51 604 154 268 51 413 "},"⁾":{"ha":311,"x_min":0,"x_max":0,"o":"m 260 604 b 81 213 260 413 157 268 l 15 213 l 15 228 b 174 604 101 292 174 443 b 15 974 174 758 101 910 l 15 989 l 81 989 b 260 604 157 933 260 789 "},"+":{"ha":792,"x_min":0,"x_max":0,"o":"m 453 774 l 453 440 l 782 440 l 782 335 l 453 335 l 453 0 l 340 0 l 340 335 l 10 335 l 10 440 l 340 440 l 340 774 "},"−":{"ha":792,"x_min":0,"x_max":0,"o":"m 786 439 l 786 335 l 6 335 l 6 439 "},"×":{"ha":792,"x_min":0,"x_max":0,"o":"m 110 753 l 399 465 l 683 750 l 758 676 l 474 390 l 763 101 l 683 21 l 393 311 l 107 24 l 32 99 l 318 385 l 31 674 "},"÷":{"ha":792,"x_min":0,"x_max":0,"o":"m 469 774 l 469 628 l 324 628 l 324 774 m 719 439 l 719 335 l 72 335 l 72 439 m 469 144 l 469 0 l 324 0 l 324 144 "},"=":{"ha":792,"x_min":0,"x_max":0,"o":"m 753 624 l 753 519 l 39 519 l 39 624 m 753 253 l 753 150 l 39 150 l 39 253 "},"≈":{"ha":792,"x_min":0,"x_max":0,"o":"m 39 578 b 246 665 99 631 179 665 b 560 578 399 665 406 578 b 753 665 626 578 693 611 l 753 551 b 546 468 693 501 613 468 b 232 551 393 468 386 551 b 39 468 165 551 99 518 m 39 222 b 246 308 99 274 179 308 b 560 222 399 308 406 222 b 753 308 626 222 693 256 l 753 194 b 546 111 693 144 613 111 b 232 194 393 111 386 194 b 39 111 165 194 99 161 "},"≠":{"ha":792,"x_min":0,"x_max":0,"o":"m 39 624 l 485 624 l 572 774 l 672 774 l 585 624 l 753 624 l 753 519 l 524 519 l 367 253 l 753 253 l 753 150 l 307 150 l 219 0 l 119 0 l 207 150 l 39 150 l 39 253 l 267 253 l 424 519 l 39 519 "},"±":{"ha":792,"x_min":0,"x_max":0,"o":"m 753 103 l 753 0 l 39 0 l 39 103 m 453 857 l 453 572 l 753 572 l 753 467 l 453 467 l 453 181 l 340 181 l 340 467 l 39 467 l 39 572 l 340 572 l 340 857 "},"<":{"ha":792,"x_min":0,"x_max":0,"o":"m 753 774 l 753 649 l 288 439 l 181 394 l 181 378 l 288 339 l 753 128 l 753 3 l 39 350 l 39 424 "},">":{"ha":792,"x_min":0,"x_max":0,"o":"m 753 424 l 753 350 l 39 3 l 39 128 l 504 339 l 611 378 l 611 394 l 504 439 l 39 649 l 39 774 "},"≤":{"ha":792,"x_min":0,"x_max":0,"o":"m 753 857 l 753 732 l 303 568 l 196 528 l 196 511 l 303 475 l 753 311 l 753 186 l 39 483 l 39 557 m 753 103 l 753 0 l 39 0 l 39 103 "},"≥":{"ha":792,"x_min":0,"x_max":0,"o":"m 753 557 l 753 483 l 39 186 l 39 311 l 489 475 l 596 511 l 596 528 l 489 568 l 39 732 l 39 857 m 753 103 l 753 0 l 39 0 l 39 103 "},"¬":{"ha":792,"x_min":0,"x_max":0,"o":"m 753 624 l 753 150 l 640 150 l 640 519 l 39 519 l 39 624 "},"·":{"ha":361,"x_min":0,"x_max":0,"o":"m 269 476 l 269 299 l 92 299 l 92 476 "},"~":{"ha":792,"x_min":0,"x_max":0,"o":"m 53 365 b 274 504 117 451 203 504 b 532 365 385 504 442 365 b 656 453 574 365 617 399 l 739 394 b 518 260 675 311 589 260 b 260 394 407 260 350 394 b 136 311 218 394 175 361 "},"^":{"ha":792,"x_min":0,"x_max":0,"o":"m 431 925 l 778 281 l 646 281 l 454 685 l 403 792 l 386 792 l 338 685 l 146 281 l 14 281 l 357 925 "},"¦":{"ha":536,"x_min":0,"x_max":0,"o":"m 335 1063 l 335 569 l 201 569 l 201 1063 m 335 360 l 335 -132 l 201 -132 l 201 360 "},"|":{"ha":536,"x_min":0,"x_max":0,"o":"m 335 1167 l 335 -236 l 201 -236 l 201 1167 "},"µ":{"ha":801,"x_min":0,"x_max":0,"o":"m 236 714 l 236 232 b 389 85 236 165 267 85 b 565 260 500 85 565 165 l 565 714 l 676 714 l 676 186 b 715 0 676 90 699 31 l 604 0 b 572 125 596 18 575 74 b 358 -11 519 18 446 -11 b 232 50 311 -11 256 14 l 226 44 l 238 -62 l 238 -306 l 125 -306 l 125 714 "},"π":{"ha":886,"x_min":0,"x_max":0,"o":"m 607 0 b 576 172 596 28 576 83 l 576 594 l 303 594 l 303 0 l 192 0 l 192 594 l 79 594 l 79 714 l 793 714 l 793 594 l 688 594 l 688 186 b 726 0 688 90 710 31 l 607 0 "},"Δ":{"ha":1032,"x_min":0,"x_max":0,"o":"m 597 981 l 942 97 l 942 0 l 90 0 l 90 94 l 435 981 m 472 757 l 217 103 l 815 103 l 561 757 l 522 874 l 511 874 "},"Ω":{"ha":1075,"x_min":0,"x_max":0,"o":"m 794 101 l 831 104 l 965 104 l 965 0 l 585 0 l 585 83 b 858 492 765 118 858 290 b 539 897 858 728 757 897 b 218 492 319 897 218 728 b 492 83 218 290 311 118 l 492 0 l 111 0 l 111 104 l 246 104 l 282 101 l 282 108 b 96 492 181 192 96 299 b 538 996 96 828 290 996 b 981 492 786 996 981 828 b 794 108 981 299 896 192 "},"∏":{"ha":1083,"x_min":0,"x_max":0,"o":"m 1019 981 l 1019 861 l 894 861 l 894 -160 l 776 -160 l 776 861 l 307 861 l 307 -160 l 189 -160 l 189 861 l 64 861 l 64 981 "},"∑":{"ha":1029,"x_min":0,"x_max":0,"o":"m 921 981 l 921 869 l 324 869 l 218 876 l 218 860 l 324 804 l 746 460 l 746 363 l 324 17 l 218 -39 l 218 -56 l 324 -49 l 921 -49 l 921 -160 l 121 -160 l 121 1 l 575 376 l 624 407 l 624 421 l 575 454 l 121 822 l 121 981 "},"∫":{"ha":549,"x_min":0,"x_max":0,"o":"m 472 1083 b 514 1068 489 1083 499 1079 l 514 988 l 432 988 b 333 879 381 988 333 936 l 333 -61 b 275 -206 333 -117 311 -168 b 147 -264 242 -242 196 -264 l 76 -264 b 35 -249 60 -264 50 -260 l 35 -167 l 118 -167 b 215 -58 169 -167 215 -115 l 215 881 b 274 1025 215 936 238 988 b 401 1083 307 1061 353 1083 "},"∂":{"ha":792,"x_min":0,"x_max":0,"o":"m 319 931 b 565 833 410 931 508 892 b 686 368 644 750 686 604 b 399 -11 686 107 571 -11 b 99 307 226 -11 99 75 b 354 590 99 476 208 590 b 532 549 436 590 499 571 l 565 526 b 489 760 554 651 531 717 b 304 825 442 810 365 822 l 275 826 l 275 917 b 313 931 289 928 299 931 m 393 488 b 217 293 272 488 217 418 b 393 88 217 158 272 88 b 568 310 514 88 568 188 b 393 488 568 422 511 488 "},"∞":{"ha":1383,"x_min":0,"x_max":0,"o":"m 410 650 b 608 542 465 650 525 624 l 692 460 l 775 542 b 974 650 858 624 918 650 l 1051 650 b 1283 419 1182 650 1283 536 l 1283 358 b 1051 128 1283 242 1182 128 l 974 128 b 775 236 918 128 858 156 l 692 318 l 608 236 b 410 128 525 156 465 128 l 332 128 b 100 358 201 128 100 242 l 100 419 b 332 650 100 536 201 650 m 765 390 l 839 314 b 986 233 903 247 951 233 l 1049 233 b 1174 356 1118 233 1174 293 l 1174 424 b 1049 544 1174 485 1118 544 l 986 544 b 839 465 951 544 903 532 m 210 356 b 335 233 210 293 265 233 l 397 233 b 544 314 432 233 481 247 l 618 389 l 544 465 b 397 544 481 532 432 544 l 335 544 b 210 424 265 544 210 485 "},"◊":{"ha":874,"x_min":0,"x_max":0,"o":"m 482 925 l 797 521 l 797 406 l 482 0 l 392 0 l 76 406 l 76 521 l 392 925 m 181 475 l 181 453 l 428 136 l 444 136 l 692 453 l 692 475 l 444 790 l 428 790 "},"√":{"ha":1017,"x_min":0,"x_max":0,"o":"m 326 714 l 504 200 l 874 1274 l 1000 1274 l 538 0 l 446 0 l 224 608 l 42 608 l 42 714 "},"⁰":{"ha":529,"x_min":0,"x_max":0,"o":"m 264 933 b 467 644 413 933 467 797 b 264 343 467 447 397 343 b 61 643 111 343 61 489 b 264 933 61 833 131 933 m 264 856 b 153 644 167 856 153 742 b 264 421 153 560 161 421 b 375 643 364 421 375 544 b 264 856 375 729 364 856 "},"¹":{"ha":349,"x_min":0,"x_max":0,"o":"m 157 925 l 235 925 l 229 864 l 229 350 l 136 350 l 136 825 l 139 842 l 136 842 l 47 804 l 47 886 "},"²":{"ha":519,"x_min":0,"x_max":0,"o":"m 61 800 b 263 933 89 865 150 933 b 446 769 375 933 446 863 b 356 606 446 707 411 658 l 174 428 l 449 428 l 449 350 l 67 350 l 67 432 l 272 638 b 351 765 317 682 351 722 b 253 857 351 811 314 857 b 136 771 210 857 169 832 "},"³":{"ha":506,"x_min":0,"x_max":0,"o":"m 46 824 b 242 933 75 874 138 933 b 418 793 335 933 418 883 b 338 674 418 728 378 689 l 338 668 b 440 538 389 658 440 615 b 125 333 440 406 299 333 b 72 338 100 333 85 335 l 67 418 b 126 415 81 417 100 415 b 347 540 271 415 347 471 b 263 615 347 594 304 615 b 167 600 254 615 243 615 l 153 672 l 221 683 b 326 782 269 692 326 725 b 235 858 326 825 292 858 b 117 789 190 858 164 838 "},"⁴":{"ha":513,"x_min":0,"x_max":0,"o":"m 392 925 l 392 547 l 461 547 l 461 474 l 392 474 l 392 350 l 299 350 l 299 474 l 42 474 l 42 561 l 296 925 m 113 547 l 299 547 l 299 738 l 306 813 l 301 814 "},"⁵":{"ha":506,"x_min":0,"x_max":0,"o":"m 428 925 l 424 847 l 175 847 l 164 690 b 282 733 206 721 239 733 b 444 561 389 733 444 660 b 142 333 444 399 307 333 b 88 338 114 333 101 335 l 82 418 b 142 415 97 417 115 415 b 353 558 283 415 353 468 b 261 657 353 603 336 657 b 133 606 224 657 182 646 l 82 626 l 103 925 "},"⁶":{"ha":518,"x_min":0,"x_max":0,"o":"m 147 540 b 264 418 147 475 189 418 b 371 533 328 418 371 458 b 261 646 371 607 329 646 b 147 540 192 646 147 606 m 407 861 b 340 864 390 863 364 864 b 147 654 226 864 165 794 b 286 721 182 700 233 721 b 464 539 385 721 464 656 b 260 343 464 413 375 343 b 57 592 143 343 57 408 b 340 944 57 751 117 944 b 404 938 368 944 388 943 "},"⁷":{"ha":464,"x_min":0,"x_max":0,"o":"m 433 925 l 433 857 b 208 351 375 794 246 650 l 107 351 b 333 847 135 581 261 764 l 46 847 l 46 925 "},"⁸":{"ha":536,"x_min":0,"x_max":0,"o":"m 163 654 b 78 778 132 661 78 707 b 268 931 78 857 146 931 b 458 778 390 931 458 857 b 374 654 458 707 404 661 l 374 649 b 475 515 415 643 475 594 b 268 343 475 399 386 343 b 61 515 149 343 61 399 b 163 649 61 594 121 643 m 167 769 b 268 682 167 719 201 682 b 369 769 335 682 369 719 b 268 858 369 818 335 858 b 167 769 201 858 167 818 m 156 519 b 268 417 156 461 183 417 b 382 519 353 417 382 461 b 268 613 382 575 353 613 b 156 519 185 613 156 575 "},"⁹":{"ha":518,"x_min":0,"x_max":0,"o":"m 253 858 b 146 743 190 858 146 818 b 257 631 146 669 188 631 b 369 736 326 631 369 669 b 253 858 369 801 329 858 m 178 413 b 371 622 290 413 353 482 b 232 556 336 576 285 556 b 54 738 132 556 54 619 b 258 933 54 864 143 933 b 461 685 375 933 461 868 b 176 333 461 524 401 333 b 114 339 150 333 129 335 l 110 417 b 178 413 128 414 154 413 "},"₀":{"ha":529,"x_min":0,"x_max":0,"o":"m 264 410 b 467 121 413 410 467 274 b 264 -181 467 -76 397 -181 b 61 119 111 -181 61 -35 b 264 410 61 310 131 410 m 264 332 b 153 121 167 332 153 218 b 264 -103 153 36 161 -103 b 375 119 364 -103 375 21 b 264 332 375 206 364 332 "},"₁":{"ha":349,"x_min":0,"x_max":0,"o":"m 157 401 l 235 401 l 229 340 l 229 -174 l 136 -174 l 136 301 l 139 318 l 136 318 l 47 281 l 47 363 "},"₂":{"ha":519,"x_min":0,"x_max":0,"o":"m 61 276 b 263 410 89 342 150 410 b 446 246 375 410 446 339 b 356 82 446 183 411 135 l 174 -96 l 449 -96 l 449 -174 l 67 -174 l 67 -92 l 272 114 b 351 242 317 158 351 199 b 253 333 351 288 314 333 b 136 247 210 333 169 308 "},"₃":{"ha":506,"x_min":0,"x_max":0,"o":"m 46 300 b 242 410 75 350 138 410 b 418 269 335 410 418 360 b 338 150 418 204 378 165 l 338 144 b 440 14 389 135 440 92 b 125 -190 440 -118 299 -190 b 72 -186 100 -190 85 -189 l 67 -106 b 126 -108 81 -107 100 -108 b 347 17 271 -108 347 -53 b 263 92 347 71 304 92 b 167 76 254 92 243 92 l 153 149 l 221 160 b 326 258 269 168 326 201 b 235 335 326 301 292 335 b 117 265 190 335 164 314 "},"₄":{"ha":513,"x_min":0,"x_max":0,"o":"m 392 401 l 392 24 l 461 24 l 461 -50 l 392 -50 l 392 -174 l 299 -174 l 299 -50 l 42 -50 l 42 38 l 296 401 m 113 24 l 299 24 l 299 214 l 306 289 l 301 290 "},"₅":{"ha":506,"x_min":0,"x_max":0,"o":"m 428 401 l 424 324 l 175 324 l 164 167 b 282 210 206 197 239 210 b 444 38 389 210 444 136 b 142 -190 444 -125 307 -190 b 88 -186 114 -190 101 -189 l 82 -106 b 142 -108 97 -107 115 -108 b 353 35 283 -108 353 -56 b 261 133 353 79 336 133 b 133 82 224 133 182 122 l 82 103 l 103 401 "},"₆":{"ha":518,"x_min":0,"x_max":0,"o":"m 147 17 b 264 -106 147 -49 189 -106 b 371 10 328 -106 371 -65 b 261 122 371 83 329 122 b 147 17 192 122 147 82 m 407 338 b 340 340 390 339 364 340 b 147 131 226 340 165 271 b 286 197 182 176 233 197 b 464 15 385 197 464 132 b 260 -181 464 -111 375 -181 b 57 68 143 -181 57 -115 b 340 421 57 228 117 421 b 404 414 368 421 388 419 "},"₇":{"ha":464,"x_min":0,"x_max":0,"o":"m 433 401 l 433 333 b 208 -174 375 271 246 125 l 107 -174 b 333 324 135 56 261 240 l 46 324 l 46 401 "},"₈":{"ha":536,"x_min":0,"x_max":0,"o":"m 163 131 b 78 254 132 138 78 183 b 268 407 78 333 146 407 b 458 254 390 407 458 333 b 374 131 458 183 404 138 l 374 125 b 475 -8 415 119 475 71 b 268 -181 475 -125 386 -181 b 61 -8 149 -181 61 -125 b 163 125 61 71 121 119 m 167 246 b 268 158 167 196 201 158 b 369 246 335 158 369 196 b 268 335 369 294 335 335 b 167 246 201 335 167 294 m 156 -4 b 268 -107 156 -62 183 -107 b 382 -4 353 -107 382 -62 b 268 89 382 51 353 89 b 156 -4 185 89 156 51 "},"₉":{"ha":518,"x_min":0,"x_max":0,"o":"m 253 335 b 146 219 190 335 146 294 b 257 107 146 146 188 107 b 369 213 326 107 369 146 b 253 335 369 278 329 335 m 178 -111 b 371 99 290 -111 353 -42 b 232 32 336 53 285 32 b 54 214 132 32 54 96 b 258 410 54 340 143 410 b 461 161 375 410 461 344 b 176 -190 461 0 401 -190 b 114 -185 150 -190 129 -189 l 110 -107 b 178 -111 128 -110 154 -111 "},"½":{"ha":1119,"x_min":0,"x_max":0,"o":"m 785 925 l 258 0 l 167 0 l 693 925 m 663 450 b 864 583 690 515 751 583 b 1047 419 976 583 1047 513 b 957 256 1047 357 1013 308 l 775 78 l 1050 78 l 1050 0 l 668 0 l 668 82 l 874 288 b 953 415 918 332 953 372 b 854 507 953 461 915 507 b 738 421 811 507 771 482 m 157 925 l 235 925 l 229 864 l 229 350 l 136 350 l 136 825 l 139 842 l 136 842 l 47 804 l 47 886 "},"¼":{"ha":1058,"x_min":0,"x_max":0,"o":"m 786 925 l 260 0 l 168 0 l 694 925 m 938 575 l 938 197 l 1007 197 l 1007 124 l 938 124 l 938 0 l 844 0 l 844 124 l 588 124 l 588 211 l 842 575 m 658 197 l 844 197 l 844 388 l 851 463 l 847 464 m 157 925 l 235 925 l 229 864 l 229 350 l 136 350 l 136 825 l 139 842 l 136 842 l 47 804 l 47 886 "},"¾":{"ha":1215,"x_min":0,"x_max":0,"o":"m 942 925 l 415 0 l 324 0 l 850 925 m 46 824 b 242 933 75 874 138 933 b 418 793 335 933 418 883 b 338 674 418 728 378 689 l 338 668 b 440 538 389 658 440 615 b 125 333 440 406 299 333 b 72 338 100 333 85 335 l 67 418 b 126 415 81 417 100 415 b 347 540 271 415 347 471 b 263 615 347 594 304 615 b 167 600 254 615 243 615 l 153 672 l 221 683 b 326 782 269 692 326 725 b 235 858 326 825 292 858 b 117 789 190 858 164 838 m 1094 575 l 1094 197 l 1164 197 l 1164 124 l 1094 124 l 1094 0 l 1001 0 l 1001 124 l 744 124 l 744 211 l 999 575 m 815 197 l 1001 197 l 1001 388 l 1008 463 l 1004 464 "},"⅓":{"ha":1107,"x_min":0,"x_max":0,"o":"m 785 925 l 258 0 l 167 0 l 693 925 m 647 474 b 843 583 676 524 739 583 b 1019 443 936 583 1019 533 b 939 324 1019 378 979 339 l 939 318 b 1042 188 990 308 1042 265 b 726 -17 1042 56 900 -17 b 674 -12 701 -17 686 -15 l 668 68 b 728 65 682 67 701 65 b 949 190 872 65 949 121 b 864 265 949 244 906 265 b 768 250 856 265 844 265 l 754 322 l 822 333 b 928 432 871 342 928 375 b 836 508 928 475 893 508 b 718 439 792 508 765 488 m 157 925 l 235 925 l 229 864 l 229 350 l 136 350 l 136 825 l 139 842 l 136 842 l 47 804 l 47 886 "},"⅔":{"ha":1278,"x_min":0,"x_max":0,"o":"m 956 925 l 429 0 l 338 0 l 864 925 m 61 800 b 263 933 89 865 150 933 b 446 769 375 933 446 863 b 356 606 446 707 411 658 l 174 428 l 449 428 l 449 350 l 67 350 l 67 432 l 272 638 b 351 765 317 682 351 722 b 253 857 351 811 314 857 b 136 771 210 857 169 832 m 818 474 b 1014 583 847 524 910 583 b 1190 443 1107 583 1190 533 b 1110 324 1190 378 1150 339 l 1110 318 b 1213 188 1161 308 1213 265 b 897 -17 1213 56 1071 -17 b 844 -12 872 -17 857 -15 l 839 68 b 899 65 853 67 872 65 b 1119 190 1043 65 1119 121 b 1035 265 1119 244 1076 265 b 939 250 1026 265 1015 265 l 925 322 l 993 333 b 1099 432 1042 342 1099 375 b 1007 508 1099 475 1064 508 b 889 439 963 508 936 488 "},"⅛":{"ha":1138,"x_min":0,"x_max":0,"o":"m 788 925 l 261 0 l 169 0 l 696 925 m 768 307 b 688 424 713 329 688 372 b 874 581 688 503 756 581 b 1060 424 992 581 1060 503 b 981 307 1060 372 1036 329 l 981 300 b 1076 169 1039 292 1076 224 b 874 -7 1076 46 983 -7 b 671 169 764 -7 671 46 b 768 300 671 224 710 292 m 768 169 b 875 72 768 115 793 72 b 981 169 956 72 981 115 b 874 261 981 222 954 261 b 768 169 793 261 768 222 m 778 419 b 875 339 778 374 811 339 b 971 419 938 339 971 374 b 874 503 971 464 938 503 b 778 419 811 503 778 464 m 157 925 l 235 925 l 229 864 l 229 350 l 136 350 l 136 825 l 139 842 l 136 842 l 47 804 l 47 886 "},"⅜":{"ha":1294,"x_min":0,"x_max":0,"o":"m 942 925 l 415 0 l 324 0 l 850 925 m 46 824 b 242 933 75 874 138 933 b 418 793 335 933 418 883 b 338 674 418 728 378 689 l 338 668 b 440 538 389 658 440 615 b 125 333 440 406 299 333 b 72 338 100 333 85 335 l 67 418 b 126 415 81 417 100 415 b 347 540 271 415 347 471 b 263 615 347 594 304 615 b 167 600 254 615 243 615 l 153 672 l 221 683 b 326 782 269 692 326 725 b 235 858 326 825 292 858 b 117 789 190 858 164 838 m 921 304 b 836 428 890 311 836 357 b 1026 581 836 507 904 581 b 1217 428 1149 581 1217 507 b 1132 304 1217 357 1163 311 l 1132 299 b 1233 165 1174 293 1233 244 b 1026 -7 1233 49 1144 -7 b 819 165 907 -7 819 49 b 921 299 819 244 879 293 m 925 419 b 1026 332 925 369 960 332 b 1128 419 1093 332 1128 369 b 1026 508 1128 468 1093 508 b 925 419 960 508 925 468 m 914 169 b 1026 67 914 111 942 67 b 1140 169 1111 67 1140 111 b 1026 263 1140 225 1111 263 b 914 169 943 263 914 225 "},"⅝":{"ha":1294,"x_min":0,"x_max":0,"o":"m 942 925 l 415 0 l 324 0 l 850 925 m 428 925 l 424 847 l 175 847 l 164 690 b 282 733 206 721 239 733 b 444 561 389 733 444 660 b 142 333 444 399 307 333 b 88 338 114 333 101 335 l 82 418 b 142 415 97 417 115 415 b 353 558 283 415 353 468 b 261 657 353 603 336 657 b 133 606 224 657 182 646 l 82 626 l 103 925 m 921 304 b 836 428 890 311 836 357 b 1026 581 836 507 904 581 b 1217 428 1149 581 1217 507 b 1132 304 1217 357 1163 311 l 1132 299 b 1233 165 1174 293 1233 244 b 1026 -7 1233 49 1144 -7 b 819 165 907 -7 819 49 b 921 299 819 244 879 293 m 925 419 b 1026 332 925 369 960 332 b 1128 419 1093 332 1128 369 b 1026 508 1128 468 1093 508 b 925 419 960 508 925 468 m 914 169 b 1026 67 914 111 942 67 b 1140 169 1111 67 1140 111 b 1026 263 1140 225 1111 263 b 914 169 943 263 914 225 "},"⅞":{"ha":1197,"x_min":0,"x_max":0,"o":"m 844 925 l 318 0 l 226 0 l 753 925 m 433 925 l 433 857 b 208 350 375 794 246 649 l 107 350 b 333 847 135 579 261 764 l 46 847 l 46 925 m 824 304 b 739 428 793 311 739 357 b 929 581 739 507 807 581 b 1119 428 1051 581 1119 507 b 1035 304 1119 357 1065 311 l 1035 299 b 1136 165 1076 293 1136 244 b 929 -7 1136 49 1047 -7 b 722 165 810 -7 722 49 b 824 299 722 244 782 293 m 828 419 b 929 332 828 369 863 332 b 1031 419 996 332 1031 369 b 929 508 1031 468 996 508 b 828 419 863 508 828 468 m 817 169 b 929 67 817 111 844 67 b 1043 169 1014 67 1043 111 b 929 263 1043 225 1014 263 b 817 169 846 263 817 225 "},"⁄":{"ha":253,"x_min":0,"x_max":0,"o":"m 436 925 l -90 0 l -182 0 l 344 925 "},"Á":{"ha":875,"x_min":0,"x_max":0,"o":"m 506 981 l 822 0 l 697 0 l 626 232 l 236 232 l 164 0 l 50 0 l 374 981 m 406 768 l 268 331 l 597 331 l 460 768 l 440 854 l 426 854 m 382 1125 l 544 1290 l 661 1290 l 661 1250 l 436 1088 l 382 1088 "},"À":{"ha":875,"x_min":0,"x_max":0,"o":"m 506 981 l 822 0 l 697 0 l 626 232 l 236 232 l 164 0 l 50 0 l 374 981 m 406 768 l 268 331 l 597 331 l 460 768 l 440 854 l 426 854 m 490 1088 l 436 1088 l 211 1250 l 211 1290 l 328 1290 l 490 1125 "},"Â":{"ha":875,"x_min":0,"x_max":0,"o":"m 506 981 l 822 0 l 697 0 l 626 232 l 236 232 l 164 0 l 50 0 l 374 981 m 406 768 l 268 331 l 597 331 l 460 768 l 440 854 l 426 854 m 483 1290 l 614 1119 l 614 1088 l 564 1088 l 442 1204 l 433 1204 l 310 1088 l 261 1088 l 261 1119 l 392 1290 "},"Ä":{"ha":875,"x_min":0,"x_max":0,"o":"m 506 981 l 822 0 l 697 0 l 626 232 l 236 232 l 164 0 l 50 0 l 374 981 m 406 768 l 268 331 l 597 331 l 460 768 l 440 854 l 426 854 m 643 1233 l 643 1115 l 524 1115 l 524 1233 m 353 1233 l 353 1115 l 233 1115 l 233 1233 "},"Ã":{"ha":875,"x_min":0,"x_max":0,"o":"m 506 981 l 822 0 l 697 0 l 626 232 l 236 232 l 164 0 l 50 0 l 374 981 m 406 768 l 268 331 l 597 331 l 460 768 l 440 854 l 426 854 m 517 1076 b 408 1136 481 1076 456 1089 l 392 1153 b 346 1181 375 1169 360 1181 b 296 1153 329 1181 317 1174 l 261 1118 l 201 1161 l 247 1207 b 360 1268 297 1257 328 1268 b 468 1208 396 1268 421 1256 l 485 1192 b 531 1164 501 1175 517 1164 b 581 1192 547 1164 560 1171 l 615 1226 l 675 1183 l 629 1138 b 517 1076 579 1088 549 1076 "},"Å":{"ha":875,"x_min":0,"x_max":0,"o":"m 506 981 l 822 0 l 697 0 l 626 232 l 236 232 l 164 0 l 50 0 l 374 981 m 406 768 l 268 331 l 597 331 l 460 768 l 440 854 l 426 854 m 281 1182 b 438 1333 281 1265 350 1333 b 594 1182 525 1333 594 1265 b 438 1032 594 1099 525 1032 b 281 1182 350 1032 281 1099 m 438 1276 b 344 1182 386 1276 344 1233 b 438 1089 344 1131 386 1089 b 531 1182 489 1089 531 1131 b 438 1276 531 1233 489 1276 "},"Ç":{"ha":911,"x_min":0,"x_max":0,"o":"m 525 -14 b 507 -12 519 -14 513 -12 l 560 -71 b 600 -174 579 -92 600 -124 b 444 -306 600 -258 540 -306 b 340 -276 403 -306 364 -297 l 354 -199 b 444 -219 371 -211 417 -219 b 504 -169 469 -219 504 -212 b 476 -118 504 -146 494 -136 l 438 -79 b 425 -50 432 -74 425 -62 l 425 -4 b 79 486 201 39 79 231 b 533 996 79 764 240 996 b 825 924 663 996 760 965 l 797 817 b 529 897 728 860 653 897 b 201 492 299 897 201 711 b 529 85 201 299 285 85 b 799 164 653 85 729 119 l 825 58 b 525 -14 760 17 658 -14 "},"É":{"ha":886,"x_min":0,"x_max":0,"o":"m 778 981 l 778 882 l 257 882 l 257 560 l 715 560 l 715 461 l 257 461 l 257 99 l 792 99 l 792 0 l 139 0 l 139 981 m 410 1125 l 572 1290 l 689 1290 l 689 1250 l 464 1088 l 410 1088 "},"È":{"ha":886,"x_min":0,"x_max":0,"o":"m 778 981 l 778 882 l 257 882 l 257 560 l 715 560 l 715 461 l 257 461 l 257 99 l 792 99 l 792 0 l 139 0 l 139 981 m 518 1088 l 464 1088 l 239 1250 l 239 1290 l 356 1290 l 518 1125 "},"Ê":{"ha":886,"x_min":0,"x_max":0,"o":"m 778 981 l 778 882 l 257 882 l 257 560 l 715 560 l 715 461 l 257 461 l 257 99 l 792 99 l 792 0 l 139 0 l 139 981 m 511 1290 l 642 1119 l 642 1088 l 592 1088 l 469 1204 l 461 1204 l 338 1088 l 289 1088 l 289 1119 l 419 1290 "},"Ë":{"ha":886,"x_min":0,"x_max":0,"o":"m 778 981 l 778 882 l 257 882 l 257 560 l 715 560 l 715 461 l 257 461 l 257 99 l 792 99 l 792 0 l 139 0 l 139 981 m 671 1233 l 671 1115 l 551 1115 l 551 1233 m 381 1233 l 381 1115 l 261 1115 l 261 1233 "},"Í":{"ha":396,"x_min":0,"x_max":0,"o":"m 257 981 l 257 0 l 139 0 l 139 981 m 139 1125 l 301 1290 l 418 1290 l 418 1250 l 193 1088 l 139 1088 "},"Ì":{"ha":396,"x_min":0,"x_max":0,"o":"m 257 981 l 257 0 l 139 0 l 139 981 m 257 1088 l 203 1088 l -22 1250 l -22 1290 l 94 1290 l 257 1125 "},"Î":{"ha":396,"x_min":0,"x_max":0,"o":"m 257 981 l 257 0 l 139 0 l 139 981 m 243 1290 l 374 1119 l 374 1088 l 324 1088 l 201 1204 l 193 1204 l 69 1088 l 21 1088 l 21 1119 l 151 1290 "},"Ï":{"ha":396,"x_min":0,"x_max":0,"o":"m 257 981 l 257 0 l 139 0 l 139 981 m 403 1233 l 403 1115 l 283 1115 l 283 1233 m 113 1233 l 113 1115 l -7 1115 l -7 1233 "},"Ł":{"ha":747,"x_min":0,"x_max":0,"o":"m 285 981 l 285 592 l 494 749 l 494 638 l 285 481 l 285 99 l 736 99 l 736 0 l 167 0 l 167 392 l 38 296 l 38 407 l 167 503 l 167 981 "},"Ñ":{"ha":997,"x_min":0,"x_max":0,"o":"m 139 981 l 303 981 l 661 306 l 747 108 l 761 108 l 746 329 l 746 981 l 858 981 l 858 0 l 700 0 l 336 676 l 250 872 l 236 872 l 251 651 l 251 0 l 139 0 m 576 1076 b 468 1136 540 1076 515 1089 l 451 1153 b 406 1181 435 1169 419 1181 b 356 1153 389 1181 376 1174 l 321 1118 l 261 1161 l 307 1207 b 419 1268 357 1257 388 1268 b 528 1208 456 1268 481 1256 l 544 1192 b 590 1164 561 1175 576 1164 b 640 1192 607 1164 619 1171 l 675 1226 l 735 1183 l 689 1138 b 576 1076 639 1088 608 1076 "},"Ø":{"ha":1046,"x_min":0,"x_max":0,"o":"m 522 -14 b 343 18 457 -14 397 -3 l 289 -93 l 206 -93 l 278 51 b 79 492 156 129 79 276 b 522 996 79 828 274 996 b 724 953 596 996 664 981 l 783 1072 l 867 1072 l 788 914 b 967 492 897 833 967 693 b 522 -14 967 161 768 -14 m 201 492 b 328 153 201 354 242 226 l 678 858 b 522 897 635 883 583 897 b 201 492 303 897 201 728 m 522 85 b 844 492 749 85 844 251 b 738 813 844 619 811 738 l 390 111 b 522 85 428 94 472 85 "},"Ó":{"ha":1046,"x_min":0,"x_max":0,"o":"m 522 996 b 967 492 772 996 967 829 b 522 -14 967 161 768 -14 b 79 492 264 -14 79 157 b 522 996 79 828 274 996 m 522 897 b 201 492 303 897 201 728 b 522 85 201 275 300 85 b 844 492 749 85 844 251 b 522 897 844 710 749 897 m 465 1125 l 628 1290 l 744 1290 l 744 1250 l 519 1088 l 465 1088 "},"Ò":{"ha":1046,"x_min":0,"x_max":0,"o":"m 522 996 b 967 492 772 996 967 829 b 522 -14 967 161 768 -14 b 79 492 264 -14 79 157 b 522 996 79 828 274 996 m 522 897 b 201 492 303 897 201 728 b 522 85 201 275 300 85 b 844 492 749 85 844 251 b 522 897 844 710 749 897 m 574 1088 l 519 1088 l 294 1250 l 294 1290 l 411 1290 l 574 1125 "},"Ô":{"ha":1046,"x_min":0,"x_max":0,"o":"m 522 996 b 967 492 772 996 967 829 b 522 -14 967 161 768 -14 b 79 492 264 -14 79 157 b 522 996 79 828 274 996 m 522 897 b 201 492 303 897 201 728 b 522 85 201 275 300 85 b 844 492 749 85 844 251 b 522 897 844 710 749 897 m 567 1290 l 697 1119 l 697 1088 l 647 1088 l 525 1204 l 517 1204 l 393 1088 l 344 1088 l 344 1119 l 475 1290 "},"Ö":{"ha":1046,"x_min":0,"x_max":0,"o":"m 522 996 b 967 492 772 996 967 829 b 522 -14 967 161 768 -14 b 79 492 264 -14 79 157 b 522 996 79 828 274 996 m 522 897 b 201 492 303 897 201 728 b 522 85 201 275 300 85 b 844 492 749 85 844 251 b 522 897 844 710 749 897 m 726 1233 l 726 1115 l 607 1115 l 607 1233 m 436 1233 l 436 1115 l 317 1115 l 317 1233 "},"Õ":{"ha":1046,"x_min":0,"x_max":0,"o":"m 522 996 b 967 492 772 996 967 829 b 522 -14 967 161 768 -14 b 79 492 264 -14 79 157 b 522 996 79 828 274 996 m 522 897 b 201 492 303 897 201 728 b 522 85 201 275 300 85 b 844 492 749 85 844 251 b 522 897 844 710 749 897 m 600 1076 b 492 1136 564 1076 539 1089 l 475 1153 b 429 1181 458 1169 443 1181 b 379 1153 413 1181 400 1174 l 344 1118 l 285 1161 l 331 1207 b 443 1268 381 1257 411 1268 b 551 1208 479 1268 504 1256 l 568 1192 b 614 1164 585 1175 600 1164 b 664 1192 631 1164 643 1171 l 699 1226 l 758 1183 l 713 1138 b 600 1076 663 1088 632 1076 "},"Š":{"ha":765,"x_min":0,"x_max":0,"o":"m 639 847 b 407 899 576 876 490 899 b 196 739 300 899 196 861 b 408 553 196 615 304 583 b 708 261 572 504 708 433 b 342 -21 708 89 572 -21 b 64 33 251 -21 142 -4 l 93 140 b 353 78 169 100 268 78 b 588 243 469 78 588 118 b 364 442 588 378 449 418 b 78 728 249 474 78 525 b 413 996 78 913 218 996 b 665 950 514 996 596 974 m 338 1088 l 207 1258 l 207 1290 l 256 1290 l 379 1174 l 388 1174 l 510 1290 l 560 1290 l 560 1258 l 429 1088 "},"Ú":{"ha":950,"x_min":0,"x_max":0,"o":"m 242 981 l 242 338 b 475 85 242 203 249 85 b 708 338 700 85 708 203 l 708 981 l 826 981 l 826 324 b 476 -14 826 163 789 -14 b 124 324 164 -14 124 163 l 124 981 m 415 1125 l 578 1290 l 694 1290 l 694 1250 l 469 1088 l 415 1088 "},"Ù":{"ha":950,"x_min":0,"x_max":0,"o":"m 242 981 l 242 338 b 475 85 242 203 249 85 b 708 338 700 85 708 203 l 708 981 l 826 981 l 826 324 b 476 -14 826 163 789 -14 b 124 324 164 -14 124 163 l 124 981 m 524 1088 l 469 1088 l 244 1250 l 244 1290 l 361 1290 l 524 1125 "},"Û":{"ha":950,"x_min":0,"x_max":0,"o":"m 242 981 l 242 338 b 475 85 242 203 249 85 b 708 338 700 85 708 203 l 708 981 l 826 981 l 826 324 b 476 -14 826 163 789 -14 b 124 324 164 -14 124 163 l 124 981 m 517 1290 l 647 1119 l 647 1088 l 597 1088 l 475 1204 l 467 1204 l 343 1088 l 294 1088 l 294 1119 l 425 1290 "},"Ü":{"ha":950,"x_min":0,"x_max":0,"o":"m 242 981 l 242 338 b 475 85 242 203 249 85 b 708 338 700 85 708 203 l 708 981 l 826 981 l 826 324 b 476 -14 826 163 789 -14 b 124 324 164 -14 124 163 l 124 981 m 676 1233 l 676 1115 l 557 1115 l 557 1233 m 386 1233 l 386 1115 l 267 1115 l 267 1233 "},"Ý":{"ha":867,"x_min":0,"x_max":0,"o":"m 161 981 l 440 461 l 721 981 l 853 981 l 492 353 l 492 0 l 374 0 l 374 353 l 17 981 m 378 1125 l 540 1290 l 657 1290 l 657 1250 l 432 1088 l 378 1088 "},"Ÿ":{"ha":867,"x_min":0,"x_max":0,"o":"m 161 981 l 440 461 l 721 981 l 853 981 l 492 353 l 492 0 l 374 0 l 374 353 l 17 981 m 639 1233 l 639 1115 l 519 1115 l 519 1233 m 349 1233 l 349 1115 l 229 1115 l 229 1233 "},"Ž":{"ha":854,"x_min":0,"x_max":0,"o":"m 782 981 l 782 896 l 213 99 l 789 99 l 789 0 l 65 0 l 65 85 l 632 882 l 115 882 l 115 981 m 379 1088 l 249 1258 l 249 1290 l 297 1290 l 421 1174 l 429 1174 l 551 1290 l 601 1290 l 601 1258 l 471 1088 "},"Ð":{"ha":1038,"x_min":0,"x_max":0,"o":"m 40 560 l 167 560 l 167 981 l 467 981 b 950 497 738 981 950 843 b 467 0 950 132 736 0 l 167 0 l 167 469 l 40 469 m 285 560 l 521 560 l 521 469 l 285 469 l 285 99 l 479 99 b 826 497 731 99 826 285 b 479 882 826 686 736 882 l 285 882 "},"Þ":{"ha":894,"x_min":0,"x_max":0,"o":"m 139 981 l 257 981 l 257 781 l 510 781 b 771 694 640 781 721 749 b 840 496 818 644 840 575 b 761 282 840 408 814 333 b 510 206 711 233 642 206 l 257 206 l 257 0 l 139 0 m 525 304 b 719 496 667 304 719 378 b 525 682 719 603 667 682 l 257 682 l 257 304 "},"Æ":{"ha":1363,"x_min":0,"x_max":0,"o":"m 1268 0 l 615 0 l 615 231 l 232 231 l 100 0 l -25 0 l 561 981 l 1254 981 l 1254 882 l 733 882 l 733 560 l 1192 560 l 1192 461 l 733 461 l 733 99 l 1268 99 m 549 771 l 293 329 l 615 329 l 615 889 l 601 889 "},"Œ":{"ha":1588,"x_min":0,"x_max":0,"o":"m 1479 981 l 1479 882 l 958 882 l 958 560 l 1417 560 l 1417 461 l 958 461 l 958 99 l 1493 99 l 1493 0 l 840 0 l 840 140 b 522 -14 760 36 647 -14 b 79 492 275 -14 79 157 b 522 996 79 828 274 996 b 840 839 647 996 760 944 l 840 981 m 522 897 b 201 492 303 897 201 728 b 522 85 201 275 293 85 b 844 492 742 85 844 251 b 522 897 844 710 749 897 "},"á":{"ha":733,"x_min":0,"x_max":0,"o":"m 103 660 b 367 725 144 688 244 725 b 621 471 529 725 621 658 l 621 186 b 660 0 621 90 643 31 l 549 0 b 519 110 540 18 522 58 b 288 -11 471 35 392 -11 b 65 190 156 -11 65 61 b 510 425 65 331 172 422 l 510 483 b 364 629 510 581 472 629 b 144 575 286 629 210 604 m 510 354 b 179 200 207 339 179 265 b 310 79 179 124 218 79 b 510 269 428 79 510 151 l 510 354 m 310 872 l 472 1038 l 589 1038 l 589 997 l 364 835 l 310 835 "},"à":{"ha":733,"x_min":0,"x_max":0,"o":"m 103 660 b 367 725 144 688 244 725 b 621 471 529 725 621 658 l 621 186 b 660 0 621 90 643 31 l 549 0 b 519 110 540 18 522 58 b 288 -11 471 35 392 -11 b 65 190 156 -11 65 61 b 510 425 65 331 172 422 l 510 483 b 364 629 510 581 472 629 b 144 575 286 629 210 604 m 510 354 b 179 200 207 339 179 265 b 310 79 179 124 218 79 b 510 269 428 79 510 151 l 510 354 m 418 835 l 364 835 l 139 997 l 139 1038 l 256 1038 l 418 872 "},"â":{"ha":733,"x_min":0,"x_max":0,"o":"m 103 660 b 367 725 144 688 244 725 b 621 471 529 725 621 658 l 621 186 b 660 0 621 90 643 31 l 549 0 b 519 110 540 18 522 58 b 288 -11 471 35 392 -11 b 65 190 156 -11 65 61 b 510 425 65 331 172 422 l 510 483 b 364 629 510 581 472 629 b 144 575 286 629 210 604 m 510 354 b 179 200 207 339 179 265 b 310 79 179 124 218 79 b 510 269 428 79 510 151 l 510 354 m 411 1038 l 542 867 l 542 835 l 492 835 l 369 951 l 361 951 l 238 835 l 189 835 l 189 867 l 319 1038 "},"ä":{"ha":733,"x_min":0,"x_max":0,"o":"m 103 660 b 367 725 144 688 244 725 b 621 471 529 725 621 658 l 621 186 b 660 0 621 90 643 31 l 549 0 b 519 110 540 18 522 58 b 288 -11 471 35 392 -11 b 65 190 156 -11 65 61 b 510 425 65 331 172 422 l 510 483 b 364 629 510 581 472 629 b 144 575 286 629 210 604 m 510 354 b 179 200 207 339 179 265 b 310 79 179 124 218 79 b 510 269 428 79 510 151 l 510 354 m 571 981 l 571 863 l 451 863 l 451 981 m 281 981 l 281 863 l 161 863 l 161 981 "},"ã":{"ha":733,"x_min":0,"x_max":0,"o":"m 103 660 b 367 725 144 688 244 725 b 621 471 529 725 621 658 l 621 186 b 660 0 621 90 643 31 l 549 0 b 519 110 540 18 522 58 b 288 -11 471 35 392 -11 b 65 190 156 -11 65 61 b 510 425 65 331 172 422 l 510 483 b 364 629 510 581 472 629 b 144 575 286 629 210 604 m 510 354 b 179 200 207 339 179 265 b 310 79 179 124 218 79 b 510 269 428 79 510 151 l 510 354 m 444 824 b 336 883 408 824 383 836 l 319 900 b 274 928 303 917 288 928 b 224 900 257 928 244 921 l 189 865 l 129 908 l 175 954 b 288 1015 225 1004 256 1015 b 396 956 324 1015 349 1003 l 413 939 b 458 911 429 922 444 911 b 508 939 475 911 488 918 l 543 974 l 603 931 l 557 885 b 444 824 507 835 476 824 "},"å":{"ha":733,"x_min":0,"x_max":0,"o":"m 103 660 b 367 725 144 688 244 725 b 621 471 529 725 621 658 l 621 186 b 660 0 621 90 643 31 l 549 0 b 519 110 540 18 522 58 b 288 -11 471 35 392 -11 b 65 190 156 -11 65 61 b 510 425 65 331 172 422 l 510 483 b 364 629 510 581 472 629 b 144 575 286 629 210 604 m 510 354 b 179 200 207 339 179 265 b 310 79 179 124 218 79 b 510 269 428 79 510 151 l 510 354 m 208 974 b 365 1125 208 1057 278 1125 b 522 974 453 1125 522 1057 b 365 824 522 890 453 824 b 208 974 278 824 208 890 m 365 1068 b 272 974 314 1068 272 1025 b 365 881 272 922 314 881 b 458 974 417 881 458 922 b 365 1068 458 1025 417 1068 "},"ç":{"ha":676,"x_min":0,"x_max":0,"o":"m 401 85 b 572 140 467 85 524 106 l 603 44 b 394 -11 549 10 483 -11 l 381 -11 l 435 -71 b 475 -174 454 -92 475 -124 b 319 -306 475 -258 415 -306 b 215 -276 278 -306 239 -297 l 229 -199 b 319 -219 246 -211 292 -219 b 379 -169 344 -219 379 -212 b 351 -118 379 -146 369 -136 l 313 -79 b 300 -50 307 -74 300 -62 l 300 0 b 74 350 146 38 74 174 b 397 725 74 569 185 725 b 603 669 482 725 549 704 l 572 574 b 399 629 524 607 468 629 b 189 353 253 629 189 514 b 401 85 189 224 228 85 "},"é":{"ha":750,"x_min":0,"x_max":0,"o":"m 189 336 b 410 85 192 213 238 85 b 614 160 489 85 549 113 l 658 72 b 410 -11 590 19 513 -11 b 74 346 178 -11 74 143 b 393 725 74 565 194 725 b 675 407 576 725 675 590 b 671 336 675 385 674 368 m 389 633 b 193 422 285 633 211 556 l 563 422 b 389 633 563 542 501 633 m 319 872 l 482 1038 l 599 1038 l 599 997 l 374 835 l 319 835 "},"è":{"ha":750,"x_min":0,"x_max":0,"o":"m 189 336 b 410 85 192 213 238 85 b 614 160 489 85 549 113 l 658 72 b 410 -11 590 19 513 -11 b 74 346 178 -11 74 143 b 393 725 74 565 194 725 b 675 407 576 725 675 590 b 671 336 675 385 674 368 m 389 633 b 193 422 285 633 211 556 l 563 422 b 389 633 563 542 501 633 m 428 835 l 374 835 l 149 997 l 149 1038 l 265 1038 l 428 872 "},"ê":{"ha":750,"x_min":0,"x_max":0,"o":"m 189 336 b 410 85 192 213 238 85 b 614 160 489 85 549 113 l 658 72 b 410 -11 590 19 513 -11 b 74 346 178 -11 74 143 b 393 725 74 565 194 725 b 675 407 576 725 675 590 b 671 336 675 385 674 368 m 389 633 b 193 422 285 633 211 556 l 563 422 b 389 633 563 542 501 633 m 421 1038 l 551 867 l 551 835 l 501 835 l 379 951 l 371 951 l 247 835 l 199 835 l 199 867 l 329 1038 "},"ë":{"ha":750,"x_min":0,"x_max":0,"o":"m 189 336 b 410 85 192 213 238 85 b 614 160 489 85 549 113 l 658 72 b 410 -11 590 19 513 -11 b 74 346 178 -11 74 143 b 393 725 74 565 194 725 b 675 407 576 725 675 590 b 671 336 675 385 674 368 m 389 633 b 193 422 285 633 211 556 l 563 422 b 389 633 563 542 501 633 m 581 981 l 581 863 l 461 863 l 461 981 m 290 981 l 290 863 l 171 863 l 171 981 "},"í":{"ha":361,"x_min":0,"x_max":0,"o":"m 236 714 l 236 0 l 125 0 l 125 714 m 125 872 l 288 1038 l 404 1038 l 404 997 l 179 835 l 125 835 "},"ì":{"ha":361,"x_min":0,"x_max":0,"o":"m 236 714 l 236 0 l 125 0 l 125 714 m 236 835 l 182 835 l -43 997 l -43 1038 l 74 1038 l 236 872 "},"î":{"ha":361,"x_min":0,"x_max":0,"o":"m 236 714 l 236 0 l 125 0 l 125 714 m 226 1038 l 357 867 l 357 835 l 307 835 l 185 951 l 176 951 l 53 835 l 4 835 l 4 867 l 135 1038 "},"ï":{"ha":361,"x_min":0,"x_max":0,"o":"m 236 714 l 236 0 l 125 0 l 125 714 m 386 981 l 386 863 l 267 863 l 267 981 m 96 981 l 96 863 l -24 863 l -24 981 "},"ł":{"ha":378,"x_min":0,"x_max":0,"o":"m 29 450 l 133 528 l 133 1022 l 244 1022 l 244 613 l 350 692 l 350 575 l 244 496 l 244 0 l 133 0 l 133 411 l 29 333 "},"ñ":{"ha":789,"x_min":0,"x_max":0,"o":"m 215 714 l 229 589 b 443 725 282 696 356 725 b 614 657 517 725 574 699 b 676 463 654 614 676 554 l 676 0 l 565 0 l 565 482 b 529 588 565 518 557 558 b 413 629 506 613 468 629 b 236 454 301 629 236 549 l 236 0 l 125 0 l 125 589 l 111 714 m 475 824 b 367 883 439 824 414 836 l 350 900 b 304 928 333 917 318 928 b 254 900 288 928 275 921 l 219 865 l 160 908 l 206 954 b 318 1015 256 1004 286 1015 b 426 956 354 1015 379 1003 l 443 939 b 489 911 460 922 475 911 b 539 939 506 911 518 918 l 574 974 l 633 931 l 588 885 b 475 824 538 835 507 824 "},"ó":{"ha":775,"x_min":0,"x_max":0,"o":"m 388 629 b 189 358 242 629 189 508 b 388 85 189 221 236 85 b 586 358 533 85 586 208 b 388 629 586 496 539 629 m 389 725 b 701 358 583 725 701 574 b 389 -11 701 158 590 -11 b 74 358 193 -11 74 138 b 389 725 74 563 188 725 m 333 872 l 496 1038 l 613 1038 l 613 997 l 388 835 l 333 835 "},"ò":{"ha":775,"x_min":0,"x_max":0,"o":"m 388 629 b 189 358 242 629 189 508 b 388 85 189 221 236 85 b 586 358 533 85 586 208 b 388 629 586 496 539 629 m 389 725 b 701 358 583 725 701 574 b 389 -11 701 158 590 -11 b 74 358 193 -11 74 138 b 389 725 74 563 188 725 m 442 835 l 388 835 l 163 997 l 163 1038 l 279 1038 l 442 872 "},"ô":{"ha":775,"x_min":0,"x_max":0,"o":"m 388 629 b 189 358 242 629 189 508 b 388 85 189 221 236 85 b 586 358 533 85 586 208 b 388 629 586 496 539 629 m 389 725 b 701 358 583 725 701 574 b 389 -11 701 158 590 -11 b 74 358 193 -11 74 138 b 389 725 74 563 188 725 m 435 1038 l 565 867 l 565 835 l 515 835 l 393 951 l 385 951 l 261 835 l 213 835 l 213 867 l 343 1038 "},"ö":{"ha":775,"x_min":0,"x_max":0,"o":"m 388 629 b 189 358 242 629 189 508 b 388 85 189 221 236 85 b 586 358 533 85 586 208 b 388 629 586 496 539 629 m 389 725 b 701 358 583 725 701 574 b 389 -11 701 158 590 -11 b 74 358 193 -11 74 138 b 389 725 74 563 188 725 m 594 981 l 594 863 l 475 863 l 475 981 m 304 981 l 304 863 l 185 863 l 185 981 "},"õ":{"ha":775,"x_min":0,"x_max":0,"o":"m 388 629 b 189 358 242 629 189 508 b 388 85 189 221 236 85 b 586 358 533 85 586 208 b 388 629 586 496 539 629 m 389 725 b 701 358 583 725 701 574 b 389 -11 701 158 590 -11 b 74 358 193 -11 74 138 b 389 725 74 563 188 725 m 468 824 b 360 883 432 824 407 836 l 343 900 b 297 928 326 917 311 928 b 247 900 281 928 268 921 l 213 865 l 153 908 l 199 954 b 311 1015 249 1004 279 1015 b 419 956 347 1015 372 1003 l 436 939 b 482 911 453 922 468 911 b 532 939 499 911 511 918 l 567 974 l 626 931 l 581 885 b 468 824 531 835 500 824 "},"ø":{"ha":775,"x_min":0,"x_max":0,"o":"m 389 -11 b 260 14 340 -11 297 -3 l 206 -93 l 122 -93 l 196 53 b 74 358 117 117 74 224 b 389 725 74 563 188 725 b 521 697 438 725 482 715 l 569 794 l 653 794 l 583 657 b 701 358 658 592 701 486 b 389 -11 701 158 590 -11 m 189 358 b 244 150 189 281 204 203 l 476 608 b 388 629 451 621 422 629 b 189 358 242 629 189 508 m 388 85 b 586 358 533 85 586 208 b 535 558 586 433 572 507 l 303 103 b 388 85 326 92 354 85 "},"š":{"ha":622,"x_min":0,"x_max":0,"o":"m 508 594 b 322 636 450 617 393 636 b 185 538 247 636 185 608 b 367 404 185 458 256 435 b 557 197 451 381 557 331 b 279 -21 557 46 424 -21 b 69 22 186 -21 94 7 l 92 117 b 278 69 136 93 199 69 b 447 181 361 69 447 96 b 261 325 447 264 368 292 b 79 526 178 353 79 411 b 329 725 79 656 183 725 b 532 688 401 725 481 711 m 267 835 l 136 1006 l 136 1038 l 185 1038 l 308 921 l 317 921 l 439 1038 l 489 1038 l 489 1006 l 358 835 "},"ú":{"ha":789,"x_min":0,"x_max":0,"o":"m 572 0 l 558 125 b 344 -11 506 18 432 -11 b 174 57 271 -11 214 15 b 111 251 133 100 111 160 l 111 714 l 222 714 l 222 232 b 258 126 222 196 231 156 b 375 85 282 101 319 85 b 551 260 486 85 551 165 l 551 714 l 663 714 l 663 125 l 676 0 m 340 872 l 503 1038 l 619 1038 l 619 997 l 394 835 l 340 835 "},"ù":{"ha":789,"x_min":0,"x_max":0,"o":"m 572 0 l 558 125 b 344 -11 506 18 432 -11 b 174 57 271 -11 214 15 b 111 251 133 100 111 160 l 111 714 l 222 714 l 222 232 b 258 126 222 196 231 156 b 375 85 282 101 319 85 b 551 260 486 85 551 165 l 551 714 l 663 714 l 663 125 l 676 0 m 449 835 l 394 835 l 169 997 l 169 1038 l 286 1038 l 449 872 "},"û":{"ha":789,"x_min":0,"x_max":0,"o":"m 572 0 l 558 125 b 344 -11 506 18 432 -11 b 174 57 271 -11 214 15 b 111 251 133 100 111 160 l 111 714 l 222 714 l 222 232 b 258 126 222 196 231 156 b 375 85 282 101 319 85 b 551 260 486 85 551 165 l 551 714 l 663 714 l 663 125 l 676 0 m 442 1038 l 572 867 l 572 835 l 522 835 l 400 951 l 392 951 l 268 835 l 219 835 l 219 867 l 350 1038 "},"ü":{"ha":789,"x_min":0,"x_max":0,"o":"m 572 0 l 558 125 b 344 -11 506 18 432 -11 b 174 57 271 -11 214 15 b 111 251 133 100 111 160 l 111 714 l 222 714 l 222 232 b 258 126 222 196 231 156 b 375 85 282 101 319 85 b 551 260 486 85 551 165 l 551 714 l 663 714 l 663 125 l 676 0 m 601 981 l 601 863 l 482 863 l 482 981 m 311 981 l 311 863 l 192 863 l 192 981 "},"ý":{"ha":654,"x_min":0,"x_max":0,"o":"m 129 714 l 315 193 l 331 131 l 338 131 l 354 193 l 522 714 l 646 714 l 347 -103 b 160 -308 310 -207 256 -308 b 93 -299 131 -308 106 -306 l 83 -212 b 238 -122 179 -212 210 -200 l 278 -11 l 4 714 m 269 872 l 432 1038 l 549 1038 l 549 997 l 324 835 l 269 835 "},"ÿ":{"ha":654,"x_min":0,"x_max":0,"o":"m 129 714 l 315 193 l 331 131 l 338 131 l 354 193 l 522 714 l 646 714 l 347 -103 b 160 -308 310 -207 256 -308 b 93 -299 131 -308 106 -306 l 83 -212 b 238 -122 179 -212 210 -200 l 278 -11 l 4 714 m 531 981 l 531 863 l 411 863 l 411 981 m 240 981 l 240 863 l 121 863 l 121 981 "},"ž":{"ha":615,"x_min":0,"x_max":0,"o":"m 558 714 l 558 644 l 182 86 l 569 86 l 569 0 l 51 0 l 51 69 l 428 628 l 85 628 l 85 714 m 278 835 l 147 1006 l 147 1038 l 196 1038 l 319 921 l 328 921 l 450 1038 l 500 1038 l 500 1006 l 369 835 "},"ð":{"ha":775,"x_min":0,"x_max":0,"o":"m 388 -11 b 74 354 193 -11 74 140 b 383 725 74 563 188 725 b 483 700 431 725 453 715 b 336 864 447 754 385 821 l 167 799 l 167 872 l 276 915 b 179 985 249 938 197 974 l 274 1033 b 375 954 311 1006 344 979 l 535 1015 l 535 942 l 433 903 b 701 365 647 700 701 513 b 388 -11 701 154 590 -11 m 388 85 b 589 357 533 85 589 210 b 388 629 589 497 539 629 b 189 360 242 629 189 507 b 388 85 189 219 236 85 "},"þ":{"ha":797,"x_min":0,"x_max":0,"o":"m 236 256 b 411 85 236 175 300 85 b 614 354 579 85 614 217 b 422 629 614 489 581 629 b 236 457 290 629 236 533 m 236 613 b 436 725 289 690 343 725 b 724 363 638 725 724 558 b 447 -11 724 200 664 -11 b 236 94 361 -11 285 14 l 236 -306 l 125 -306 l 125 1022 l 236 1022 "},"æ":{"ha":1188,"x_min":0,"x_max":0,"o":"m 510 354 b 179 200 207 339 179 265 b 310 79 179 124 218 79 b 510 269 428 79 510 151 l 510 354 m 558 139 b 288 -11 492 28 392 -11 b 65 190 156 -11 65 61 b 510 425 65 331 172 422 l 510 483 b 364 629 510 581 472 629 b 144 575 286 629 210 604 l 103 660 b 367 725 144 688 244 725 b 593 600 481 725 556 689 b 833 725 649 678 728 725 b 1113 407 1013 725 1113 590 b 1108 336 1113 385 1111 368 l 621 336 b 847 85 625 213 675 85 b 1051 160 926 85 986 113 l 1096 72 b 847 -11 1028 19 950 -11 b 558 139 704 -11 610 47 m 826 633 b 625 422 722 633 644 556 l 1000 422 b 826 633 1000 542 939 633 "},"œ":{"ha":1263,"x_min":0,"x_max":0,"o":"m 389 725 b 646 568 504 725 593 665 b 906 725 700 665 789 725 b 1188 407 1089 725 1188 590 b 1183 336 1188 385 1186 368 l 696 336 b 922 85 700 213 750 85 b 1126 160 1001 85 1061 113 l 1171 72 b 922 -11 1103 19 1025 -11 b 640 140 786 -11 693 47 b 389 -11 588 49 503 -11 b 74 358 193 -11 74 138 b 389 725 74 563 188 725 m 901 633 b 700 422 797 633 719 556 l 1075 422 b 901 633 1075 542 1014 633 m 388 629 b 189 358 242 629 189 508 b 388 85 189 221 236 85 b 586 358 533 85 586 208 b 388 629 586 496 539 629 "},"ß":{"ha":769,"x_min":0,"x_max":0,"o":"m 415 540 b 475 646 415 582 436 606 b 531 778 508 681 531 711 b 376 938 531 858 497 938 b 229 725 247 938 229 846 l 229 0 l 118 0 l 118 751 b 375 1033 118 946 221 1033 b 643 794 546 1033 643 926 b 554 593 643 701 594 633 b 519 550 531 571 519 558 b 599 460 519 535 550 507 b 733 210 664 397 733 339 b 508 -12 733 60 629 -12 b 393 0 456 -12 410 -3 l 393 90 b 507 78 422 86 460 78 b 624 194 568 78 624 108 b 518 389 624 301 557 350 b 415 540 446 461 415 490 "},"ﬁ":{"ha":767,"x_min":0,"x_max":0,"o":"m 131 714 l 131 844 b 311 1036 131 953 196 1036 b 410 1021 368 1036 397 1029 l 394 933 b 324 942 376 938 349 942 b 242 850 263 942 242 917 l 242 714 l 408 714 l 408 628 l 242 628 l 242 0 l 131 0 l 131 628 l 13 628 l 13 714 m 642 714 l 642 0 l 531 0 l 531 714 m 650 1022 l 650 896 l 522 896 l 522 1022 "},"ﬂ":{"ha":767,"x_min":0,"x_max":0,"o":"m 131 714 l 131 844 b 311 1036 131 953 196 1036 b 410 1021 368 1036 397 1029 l 394 933 b 324 942 376 938 349 942 b 242 850 263 942 242 917 l 242 714 l 408 714 l 408 628 l 242 628 l 242 0 l 131 0 l 131 628 l 13 628 l 13 714 m 642 1022 l 642 0 l 531 0 l 531 1022 "},"ﬀ":{"ha":811,"x_min":0,"x_max":0,"o":"m 131 714 l 131 844 b 311 1036 131 953 196 1036 b 410 1021 368 1036 397 1029 l 394 933 b 324 942 376 938 349 942 b 242 850 263 942 242 917 l 242 714 l 536 714 l 536 844 b 717 1036 536 953 601 1036 b 815 1021 774 1036 803 1029 l 800 933 b 729 942 782 938 754 942 b 647 850 668 942 647 917 l 647 714 l 814 714 l 814 628 l 647 628 l 647 0 l 536 0 l 536 628 l 242 628 l 242 0 l 131 0 l 131 628 l 13 628 l 13 714 "},"ﬃ":{"ha":1172,"x_min":0,"x_max":0,"o":"m 131 628 l 13 628 l 13 714 l 131 714 l 131 844 b 311 1036 131 953 196 1036 b 410 1021 368 1036 397 1029 l 394 933 b 324 942 376 938 349 942 b 242 850 263 942 242 917 l 242 714 l 536 714 l 536 844 b 717 1036 536 953 601 1036 b 815 1021 774 1036 803 1029 l 800 933 b 729 942 782 938 754 942 b 647 850 668 942 647 917 l 647 714 l 814 714 l 814 628 l 647 628 l 647 0 l 536 0 l 536 628 l 242 628 l 242 0 l 131 0 m 936 714 l 1047 714 l 1047 0 l 936 0 m 928 1022 l 1056 1022 l 1056 896 l 928 896 "},"ﬄ":{"ha":1172,"x_min":0,"x_max":0,"o":"m 131 714 l 131 844 b 311 1036 131 953 196 1036 b 410 1021 368 1036 397 1029 l 394 933 b 324 942 376 938 349 942 b 242 850 263 942 242 917 l 242 714 l 536 714 l 536 844 b 717 1036 536 953 601 1036 b 815 1021 774 1036 803 1029 l 800 933 b 729 942 782 938 754 942 b 647 850 668 942 647 917 l 647 714 l 814 714 l 814 628 l 647 628 l 647 0 l 536 0 l 536 628 l 242 628 l 242 0 l 131 0 l 131 628 l 13 628 l 13 714 m 1047 1022 l 1047 0 l 936 0 l 936 1022 "},"ı":{"ha":361,"x_min":0,"x_max":0,"o":"m 236 714 l 236 0 l 125 0 l 125 714 "},"ª":{"ha":590,"x_min":0,"x_max":0,"o":"m 75 936 b 296 999 110 963 189 999 b 499 803 425 999 499 946 l 499 581 b 528 438 499 507 515 461 l 429 438 b 407 521 424 451 410 482 b 229 428 371 464 310 428 b 57 588 126 428 57 486 b 400 769 57 694 139 765 b 400 811 400 769 400 792 b 293 918 400 882 372 918 b 113 865 228 918 168 894 m 400 713 b 153 590 201 699 153 653 b 249 504 153 538 188 504 b 400 644 340 504 400 558 l 400 713 "},"º":{"ha":621,"x_min":0,"x_max":0,"o":"m 310 917 b 164 715 201 917 164 826 b 310 511 164 613 196 511 b 457 715 419 511 457 603 b 310 917 457 817 424 917 m 311 999 b 558 715 463 999 557 885 b 311 428 557 557 469 428 b 63 715 158 428 63 542 b 311 999 63 875 153 999 "},"ⁿ":{"ha":632,"x_min":0,"x_max":0,"o":"m 182 989 l 192 896 b 357 999 236 978 290 999 b 490 947 415 999 460 979 b 540 793 522 914 540 865 l 540 438 l 442 438 l 442 808 b 328 917 442 857 419 917 b 199 789 249 917 199 858 l 199 438 l 101 438 l 101 892 l 90 989 "},"´":{"ha":569,"x_min":0,"x_max":0,"o":"m 229 872 l 392 1038 l 508 1038 l 508 997 l 283 835 l 229 835 "},"`":{"ha":569,"x_min":0,"x_max":0,"o":"m 338 835 l 283 835 l 58 997 l 58 1038 l 175 1038 l 338 872 "},"ˆ":{"ha":569,"x_min":0,"x_max":0,"o":"m 331 1038 l 461 867 l 461 835 l 411 835 l 289 951 l 281 951 l 157 835 l 108 835 l 108 867 l 239 1038 "},"¨":{"ha":569,"x_min":0,"x_max":0,"o":"m 490 981 l 490 863 l 371 863 l 371 981 m 200 981 l 200 863 l 81 863 l 81 981 "},"˜":{"ha":569,"x_min":0,"x_max":0,"o":"m 364 824 b 256 883 328 824 303 836 l 239 900 b 193 928 222 917 207 928 b 143 900 176 928 164 921 l 108 865 l 49 908 l 94 954 b 207 1015 144 1004 175 1015 b 315 956 243 1015 268 1003 l 332 939 b 378 911 349 922 364 911 b 428 939 394 911 407 918 l 463 974 l 522 931 l 476 885 b 364 824 426 835 396 824 "},"˚":{"ha":569,"x_min":0,"x_max":0,"o":"m 128 974 b 285 1125 128 1057 197 1125 b 442 974 372 1125 442 1057 b 285 824 442 890 372 824 b 128 974 197 824 128 890 m 285 1068 b 192 974 233 1068 192 1025 b 285 881 192 922 233 881 b 378 974 336 881 378 922 b 285 1068 378 1025 336 1068 "},"ˇ":{"ha":569,"x_min":0,"x_max":0,"o":"m 239 835 l 108 1006 l 108 1038 l 157 1038 l 281 921 l 289 921 l 411 1038 l 461 1038 l 461 1006 l 331 835 "},"¯":{"ha":569,"x_min":0,"x_max":0,"o":"m 458 964 l 458 872 l 111 872 l 111 964 "},"˘":{"ha":569,"x_min":0,"x_max":0,"o":"m 157 1038 l 157 1024 b 285 904 157 956 186 904 b 413 1024 383 904 413 967 l 413 1038 l 479 1038 l 479 1006 b 285 824 479 908 413 824 b 93 1006 158 824 93 904 l 93 1038 "},"˙":{"ha":569,"x_min":0,"x_max":0,"o":"m 349 981 l 349 854 l 221 854 l 221 981 "},"˝":{"ha":569,"x_min":0,"x_max":0,"o":"m 150 872 l 211 1038 l 308 1038 l 308 997 l 204 835 l 150 835 m 361 872 l 438 1038 l 535 1038 l 535 997 l 415 835 l 361 835 "},"¸":{"ha":569,"x_min":0,"x_max":0,"o":"m 306 6 l 375 -71 b 415 -174 394 -92 415 -124 b 260 -306 415 -258 356 -306 b 156 -276 218 -306 179 -297 l 169 -199 b 260 -219 186 -211 232 -219 b 319 -169 285 -219 319 -212 b 292 -118 319 -146 310 -136 l 253 -79 b 240 -50 247 -74 240 -62 l 240 6 "},"˛":{"ha":569,"x_min":0,"x_max":0,"o":"m 318 -114 b 290 -169 300 -132 290 -146 b 350 -219 290 -212 325 -219 b 440 -199 378 -219 424 -211 l 454 -276 b 350 -306 431 -297 392 -306 b 194 -174 254 -306 194 -258 b 235 -71 194 -124 215 -92 l 326 6 l 438 6 l 438 0 "}," ":{"ha":318,"x_min":0,"x_max":0,"o":""}}}
